<?xml version="1.0" encoding="utf-8" ?><svg xmlns="http://www.w3.org/2000/svg" xmlns:xlink="http://www.w3.org/1999/xlink" width="1024" height="1024" viewBox="0 0 1024 1024"><defs><linearGradient id="gradient_0" gradientUnits="userSpaceOnUse" x1="862.73572" y1="588.61261" x2="250.16353" y2="495.6452"><stop offset="0" stop-color="#060402"/><stop offset="1" stop-color="#1D1D13"/></linearGradient></defs><path fill="url(#gradient_0)" d="M586.008 153.799C603.282 137.245 621.574 121.699 639.359 105.693C660.692 86.4921 683.983 64.6281 707.12 47.9288C716.322 41.2878 731.87 30.0667 743.837 32.3312C747.823 33.0854 750.929 35.5042 753.149 38.8393C756.962 44.5682 757.186 49.8058 756.95 56.4855C756.455 70.4572 753.489 84.444 750.992 98.1623L743.789 139.636C738.492 170.785 734.895 202.413 728.476 233.341C731.444 238.82 736.212 243.052 739.825 248.085C752.571 265.841 756.983 291.054 753.309 312.338C768.209 331.365 771.46 368.561 772.195 392.53C780.734 389.812 790.291 388.487 799.185 387.434C828.91 383.914 855.718 386.246 883.778 397.01C839.684 391.099 815.543 389.954 771.492 398.759C770.032 407.965 769.149 416.924 766.646 425.961C801.296 425.677 834.706 429.294 867.558 440.811C876.33 443.886 885.247 447.134 892.673 452.847C885.915 449.928 878.11 448.381 870.997 446.46C833.64 436.374 803.151 433.771 764.672 432.703C762.186 439.054 759.529 445.47 756.492 451.577C795.859 459.113 837.052 477.133 867.492 503.506C862.627 500.759 857.474 498.41 852.512 495.822C829.479 483.805 805.96 472.747 781.034 465.158C771.827 462.355 762.345 460.367 752.962 458.261C738.67 483.074 721.006 502.509 698.281 519.862C690.746 525.616 681.886 530.512 675.031 537.024L674.51 537.525C675.612 543.226 675.904 549.055 675.375 554.838C674.835 560.776 671.56 568.135 673.514 573.936C676.197 581.905 684.099 589.036 689.17 595.606C693.312 600.971 697.296 606.756 700.612 612.666C710.965 631.122 720.3 650.713 728.176 670.353C732.949 682.256 736.76 694.566 742.089 706.245C746.12 715.079 752.088 723.075 757.066 731.403C769.685 752.517 780.733 777.488 783.352 802.117C786.093 827.898 779.72 852.216 763.187 872.416C752.425 885.565 737.552 894.524 720.575 896.506C713.945 897.281 707.211 897.063 700.55 897.723L699.939 909.713C698.994 928.759 697.584 947.779 695.711 966.756C693.998 985.877 692.335 1005.06 689.148 1024L684.577 1024L675.115 1024L285.934 1024L185.402 1024C186.328 1019.3 186.4 1014.26 186.84 1009.47C187.478 1001.73 188.427 994.016 189.686 986.352C194.47 956.428 201.344 927.236 209.624 898.106C211.335 892.09 212.68 885.933 214.575 879.976C222.017 856.585 232.286 834.208 241.438 811.457C246.304 799.359 251.254 787.169 254.351 774.47C259.294 754.196 263.537 734.024 266.313 713.325L273.287 661.406C274.034 656.229 274.22 650.974 275.003 645.818C276.303 637.264 278.76 628.343 281.125 620.002C285.266 605.392 290.379 590.694 297.516 577.251C300.661 571.325 304.425 565.576 307.873 559.815C311.458 553.827 319.422 543.65 321.501 537.542C322.516 534.557 320.513 529.766 320.125 526.673C319.159 518.987 322.818 491.315 327.446 485.347C301.484 454.826 285.636 433.534 278.51 392.764C272.21 356.715 278.698 320.615 290.518 286.457C293.416 278.081 296.379 268.477 301.494 261.148C301.773 253.259 299.83 245.884 298.65 238.13C297.496 230.699 296.916 223.191 296.918 215.671C296.582 175.803 305.219 108.6 320.024 72.1646C324.246 61.7752 329.817 51.4711 337.791 43.4641C343.399 37.833 350.472 33.4199 358.683 33.5643C364.406 33.665 370.277 35.6384 375.184 38.5336C395.69 50.6338 414.876 75.5007 430.18 93.3978L459.959 127.688C466.641 135.42 473.122 143.402 480.083 150.882C515.389 147.863 550.922 148.842 586.008 153.799Z"/><path fill="#FEF4DD" d="M339.723 926.926C343.741 930.524 348.398 933.697 352.876 936.709C370.282 948.416 388.608 955.775 409.826 954.556C422.305 953.839 435.423 950.255 447.019 945.676C454.031 942.907 461.155 939.796 467.835 936.303C472.035 934.107 475.955 931.103 480.4 929.413C482.966 928.441 485.704 928.002 488.446 928.124C497.868 928.456 507.008 933.708 514.981 938.277C538.981 952.031 560.838 965.696 589.911 962.748C601.403 961.583 613.452 956.876 622.043 949.036C627.688 943.886 631.884 936.689 639.784 934.772C647.692 932.853 656.606 935.521 664.151 937.784C669.496 935.911 674.88 934.151 680.299 932.507C682.144 933.356 684.942 934.011 685.732 935.885C683.711 965.654 681.522 994.799 675.115 1024L285.934 1024C291.589 1014.5 299.703 1005.96 306.276 997.036C322.031 975.655 332.427 952.346 339.723 926.926Z"/><path fill="#D9CCB3" d="M511.372 866.537C514.82 870.738 518 875.168 521.655 879.194C529.635 887.985 544.578 901.323 556.904 902.686C562.892 903.348 567.948 901.605 573.175 898.969C579.529 904.117 585.945 908.409 594.584 907.629C603.338 906.839 610.006 901.64 615.672 895.349C621.587 896.517 624.613 895.465 629.992 892.918C635.245 899.039 639.782 903.184 648.302 903.781C657.323 904.413 663.549 899.901 670.902 895.608C676.793 897.063 681.968 897.576 688.033 897.431C687.952 907.764 687.376 917.916 686.481 928.21C686.274 930.586 686.397 933.645 685.732 935.885C684.942 934.011 682.144 933.356 680.299 932.507C674.88 934.151 669.496 935.911 664.151 937.784C656.606 935.521 647.692 932.853 639.784 934.772C631.884 936.689 627.688 943.886 622.043 949.036C613.452 956.876 601.403 961.583 589.911 962.748C560.838 965.696 538.981 952.031 514.981 938.277C507.008 933.708 497.868 928.456 488.446 928.124C485.704 928.002 482.966 928.441 480.4 929.413C475.955 931.103 472.035 934.107 467.835 936.303C461.155 939.796 454.031 942.907 447.019 945.676C435.423 950.255 422.305 953.839 409.826 954.556C388.608 955.775 370.282 948.416 352.876 936.709C348.398 933.697 343.741 930.524 339.723 926.926C340.874 922.548 342.124 918.151 343.018 913.713C364.402 927.905 386.996 933.57 412.389 928.371C450.311 920.608 486.04 894.97 511.372 866.537Z"/><path fill="#2A2012" d="M684.577 1024C685.563 1015.82 687.606 1007.7 688.913 999.551C689.549 995.586 689.477 990.893 690.496 987.084L691.009 987.425C690.986 989.42 691 991.389 691.119 993.381L691.461 993.296C694.056 989.726 696.803 937.436 697.383 929.74C697.538 927.684 698.312 925.752 698.477 923.748C698.88 918.877 697.972 914.39 699.939 909.713C698.994 928.759 697.584 947.779 695.711 966.756C693.998 985.877 692.335 1005.06 689.148 1024L684.577 1024Z"/><path fill="#FEF4DD" d="M328.109 545.366C333.659 548.399 338.03 553.898 342.739 558.083C347.347 562.178 352.251 565.871 357.263 569.45C370.827 579.063 385.468 587.056 400.888 593.269C444.136 610.592 504.138 621.41 550.839 620.308C558.446 620.129 566.051 619.968 573.573 618.713C568.438 621.937 563.947 625.385 559.612 629.631C553.549 637.456 550.211 645.961 551.536 656.006C552.959 666.792 560.494 676.711 569.036 683.046C576.961 688.924 587.549 691.312 597.278 689.739C607.413 688.101 615.606 681.179 621.403 672.992C627.665 664.15 630.636 653.334 628.657 642.574C627.122 634.23 622.519 626.582 615.482 621.763C611.217 618.843 606.273 617.19 601.987 614.355L602.635 614.02C608.063 611.258 614.023 609.485 619.679 607.234C635.469 600.953 651.361 592.81 663.712 581.027C695.038 614.412 703.943 652.381 722.851 692.255C727.396 701.839 731.922 711.581 736.95 720.919C740.811 728.092 745.339 734.896 749.198 742.074C760.624 763.328 772.799 792.659 771.921 816.99C771.682 823.601 770.402 829.98 768.81 836.383C762.231 854.705 751.748 870.704 733.728 879.24C729.274 881.35 717.618 886.445 712.902 885.239C712.396 885.11 712.175 884.912 711.783 884.634C711.296 882.201 713.287 879.654 714.616 877.678C716.217 875.3 719.586 869.747 721.075 867.871C732.206 845.421 739.936 822.73 738.017 797.319C733.413 813.755 729.855 827.067 722.358 842.636C716.414 857.219 707.707 875.391 692.405 881.935C687.701 883.946 680.05 885.68 675.208 883.618C673.307 882.809 671.939 881.25 671.221 879.328C670.814 878.239 670.525 877.094 670.229 875.971C669.233 863.097 672.059 843.414 674.471 830.439C664.638 843.631 661.179 865.314 663.266 881.307C663.404 882.136 663.54 882.958 663.563 883.799C663.621 885.925 662.785 887.492 661.329 889.006C658.474 891.974 653.33 892.838 649.396 892.749C643.843 892.625 639.647 891.009 635.774 887.089C638.779 879.929 642.278 873.582 644.61 866.077C650.195 844.8 647.927 821.125 637.23 801.809C635.476 798.642 628.805 789.892 628.895 786.715C628.968 784.145 630.484 780.941 631.476 778.585C636.4 766.894 643.411 757.953 652.945 749.603C664.87 739.159 679.523 734.733 695.338 735.882C713.282 737.187 730.913 750.553 742.282 763.645C742.043 761.619 741.804 759.677 740.913 757.812C733.019 741.282 713.986 734.529 698.038 728.833C697.405 714.209 694.033 697.705 687.63 684.544C687.109 699.296 690.063 713.471 690.541 728.157C682.201 728.894 673.749 729.297 665.769 732.045C645.091 739.165 628.072 757.39 618.766 776.706C601.695 759.046 587.998 746.638 563.88 738.559C516.825 722.795 480.829 748.602 440.503 768.619C442.913 746.4 442.888 719.689 428.566 701.23C429.479 708.949 431.623 716.586 432.954 724.254C435.371 738.181 436.983 761.45 430.088 774.357C419.632 781.325 394.604 792.637 388.938 802.795C407.596 797.801 428.053 785.874 445.069 776.8C458.047 770.022 471.242 763.666 484.631 757.741C494.712 753.183 504.877 748.376 515.466 745.116C536.312 738.698 559.752 745.222 578.48 755.211C601.415 767.444 627.658 793.87 635.28 819.074C640.02 834.745 639.398 862.9 631.164 877.385C628.735 881.658 625.809 883.048 621.301 884.268C621.744 879.78 623.281 875.535 624.452 871.202C627.703 859.176 624.563 849.064 618.975 838.286L615.648 840.058C620.741 855.582 621.708 864.411 614.43 879.646C611.165 886.376 607.181 892.789 599.654 895.304C595.674 896.633 589.251 897.079 585.404 895.145C583.548 894.212 581.937 892.377 581.453 890.325C580.966 888.263 582.02 885.726 582.652 883.793C584.328 877.501 585.11 871.004 584.975 864.494C584.754 853.059 581.622 840.466 573.143 832.304C573.23 836.543 574.381 840.83 575.158 844.994C577.327 856.618 579.094 868.991 576.26 880.649C575.918 881.991 575.363 883.346 574.752 884.587C572.888 888.375 569.953 891.65 565.785 892.805C559.593 894.52 552.445 891.75 547.063 888.722C527.609 877.778 510.21 853.572 504.144 832.059L503.895 831.501C502.31 827.861 500.607 818.898 497.74 816.595C496.121 820.213 498.173 827.906 498.643 831.865C499.871 840.593 502.62 848.382 505.74 856.584C484.523 883.508 439.261 915.585 404.88 919.678C384.654 922.085 364.714 915.396 348.813 902.834C346.962 901.371 345.228 899.807 343.53 898.171C302.805 860.862 306.145 783.388 301.152 732.207C299.289 713.115 296.13 693.601 290.385 675.298C289.078 672.12 286.96 669.259 286.607 665.776C284.86 648.519 298.825 603.515 305.956 586.857C309.117 579.471 313.474 572.55 317.056 565.346C320.399 558.62 323.338 551.202 328.109 545.366Z"/><path fill="#D9CCB3" d="M328.109 545.366C333.659 548.399 338.03 553.898 342.739 558.083C347.347 562.178 352.251 565.871 357.263 569.45C370.827 579.063 385.468 587.056 400.888 593.269C444.136 610.592 504.138 621.41 550.839 620.308C558.446 620.129 566.051 619.968 573.573 618.713C568.438 621.937 563.947 625.385 559.612 629.631C555.724 629.51 551.685 630.319 547.784 630.594C541.094 631.05 534.386 631.176 527.683 630.972C496.63 630.094 457.94 620.793 428.59 610.205C407.837 602.719 387.933 593.168 366.929 586.294C361.035 584.365 354.99 582.039 348.776 581.453C339.703 580.597 331.072 586.639 324.748 592.583C308.695 607.668 300.59 637.825 295.428 658.519C294.261 663.199 293.305 671.631 290.385 675.298C289.078 672.12 286.96 669.259 286.607 665.776C284.86 648.519 298.825 603.515 305.956 586.857C309.117 579.471 313.474 572.55 317.056 565.346C320.399 558.62 323.338 551.202 328.109 545.366Z"/><path fill="#D9CCB3" d="M343.53 898.171C348.625 897.77 353.729 901.758 358.507 903.364C362.636 904.751 367.385 905.271 371.718 905.492C404.699 907.177 436.529 888.449 461.812 869.175C467.622 864.746 473.875 860.433 479.056 855.274C483.89 850.461 488.329 844.508 492.549 839.126C494.243 836.965 495.924 834.197 497.98 832.42C498.198 832.232 498.422 832.05 498.643 831.865C499.871 840.593 502.62 848.382 505.74 856.584C484.523 883.508 439.261 915.585 404.88 919.678C384.654 922.085 364.714 915.396 348.813 902.834C346.962 901.371 345.228 899.807 343.53 898.171Z"/><path fill="#D9CCB3" d="M504.144 832.059L504.207 829.952L504.655 829.641C507.334 831.533 512.262 839.68 514.846 842.635C530.076 860.055 552.265 878.945 576.26 880.649C575.918 881.991 575.363 883.346 574.752 884.587C572.888 888.375 569.953 891.65 565.785 892.805C559.593 894.52 552.445 891.75 547.063 888.722C527.609 877.778 510.21 853.572 504.144 832.059Z"/><path fill="#D9CCB3" d="M721.075 867.871C721.479 868.076 721.577 868.155 722.087 868.242C733.515 870.196 748.291 856.527 755.196 848.808C758.607 844.995 761.844 840.262 765.735 836.995C766.901 836.015 767.392 836.289 768.81 836.383C762.231 854.705 751.748 870.704 733.728 879.24C729.274 881.35 717.618 886.445 712.902 885.239C712.396 885.11 712.175 884.912 711.783 884.634C711.296 882.201 713.287 879.654 714.616 877.678C716.217 875.3 719.586 869.747 721.075 867.871Z"/><path fill="#D9CCB3" d="M670.229 875.971C685.544 873.28 697.842 866.899 708.859 855.828C712.537 852.131 717.503 844.046 722.358 842.636C716.414 857.219 707.707 875.391 692.405 881.935C687.701 883.946 680.05 885.68 675.208 883.618C673.307 882.809 671.939 881.25 671.221 879.328C670.814 878.239 670.525 877.094 670.229 875.971Z"/><path fill="#D9CCB3" d="M635.774 887.089C638.779 879.929 642.278 873.582 644.61 866.077C645.089 866.654 645.633 867.213 646.096 867.793C647.519 869.575 647.981 872.944 648.465 875.168C652.68 879.161 657.48 881.062 663.266 881.307C663.404 882.136 663.54 882.958 663.563 883.799C663.621 885.925 662.785 887.492 661.329 889.006C658.474 891.974 653.33 892.838 649.396 892.749C643.843 892.625 639.647 891.009 635.774 887.089Z"/><path fill="#D9CCB3" d="M582.652 883.793C590.262 885.402 597.894 885.114 605.207 882.393C608.087 881.321 611.32 879.443 614.43 879.646C611.165 886.376 607.181 892.789 599.654 895.304C595.674 896.633 589.251 897.079 585.404 895.145C583.548 894.212 581.937 892.377 581.453 890.325C580.966 888.263 582.02 885.726 582.652 883.793Z"/><path fill="#0B0905" d="M611.119 828.214C614.188 831.3 616.669 834.606 618.975 838.286L615.648 840.058C614.293 836.029 612.787 832.124 611.119 828.214Z"/><path fill="#FEF4DD" d="M741.184 44.5483L742.388 45.0677C743.75 44.8104 744.2 44.4566 745.399 45.2231C746.921 49.1726 746.82 54.3609 746.523 58.5457C745.9 67.3263 744.072 76.2284 742.584 84.8989C739.574 102.441 736.32 119.978 733.697 137.58C732.623 144.786 731.277 152.244 730.797 159.511L731.772 159.629C732.734 157.939 732.113 155.159 733.267 153.911C734.039 154.98 733.511 156.484 733.302 157.763C732.026 165.546 730.91 173.725 730.168 181.57C729.147 179.221 730.257 176.985 728.617 174.736C726.099 188.801 724.543 209.73 719.585 222.426L719.248 223.307C710.012 215.307 701.904 206.188 692.695 198.121C698.769 194.286 703.654 188.931 709.693 185.171C700.331 188.554 691.594 192.438 681.611 193.708C680.447 192.471 679.242 191.257 678.199 189.915C683.524 184.017 688.72 178.15 693.431 171.739C698.284 165.133 702.639 158.137 707.685 151.683C702.857 155.361 697.938 159 693.453 163.097C688.367 167.744 683.655 172.946 678.078 177.017C677.401 177.812 676.89 178.292 675.974 178.797C674.986 181.711 671.538 189.575 672.326 192.208L673.01 191.924L672.483 192.334L672.322 192.214L673.061 191.8L673.66 190.707C678.839 192.626 723.257 243.026 729.046 250.581C734.056 257.119 738.829 264.2 742.257 271.713C746.249 280.465 749.702 290.547 748.646 300.255C748.23 304.086 747.14 308.212 747.348 312.061C747.651 317.696 750.45 323.035 750.77 328.635C752.578 332.232 759.769 365.194 759.602 369.097C760.111 375.807 759.077 385.72 760.121 391.75C761.014 396.203 759.397 407.242 759.53 412.896L759.023 413.177C758.84 412.457 758.842 412.21 759.005 411.469C759.178 410.684 759.14 410.404 758.922 409.649C757.745 415.394 756.4 420.758 754.543 426.357C744.473 427.551 735.385 428.78 726.046 432.987C734.874 432.986 743.702 432.843 752.526 432.558C750.418 438.672 747.615 444.361 744.52 450.029C734.344 449.401 725.363 449.471 715.449 452.227C724.15 452.686 732.772 454.314 741.34 455.826C730.456 475.967 711.072 497.384 692.143 510.28C689.45 512.478 686.557 514.562 683.538 516.289C681.087 518.218 678.397 519.792 675.744 521.421C630.501 551.384 571.169 565.255 517.363 559.96C443.755 552.717 368.753 517.928 321.451 460.001C293.502 425.775 285.984 382.77 290.308 339.708C293.141 345.527 296.905 350.564 300.2 356.087C308.941 367.217 318.92 376.23 331.266 383.223C346.677 391.952 364.084 396.181 381.394 399.178C423.795 406.519 468.882 406.199 510.559 394.699C529.529 389.464 548.116 382.088 558.307 364.14C560.27 367.009 562.372 369.639 564.648 372.267C565.385 371.624 566.128 370.992 566.835 370.315C580.851 356.878 584.478 311.433 584.894 292.413C585.669 256.957 573.997 211.333 558.539 179.524C555.55 173.372 552.492 166.581 547.73 161.604C551.02 162.083 554.222 162.977 557.438 163.801C565 160.907 609.363 169.182 622.223 168.562C624.868 168.434 627.421 167.731 629.974 167.077C621.196 164.521 612.198 162.187 603.225 160.431C623.591 144.864 641.493 126.78 659.826 108.967C669.547 99.3578 679.68 90.1057 689.711 80.8217C701.116 70.2658 713.002 58.6947 726.245 50.4444C730.558 47.7576 736.055 44.9014 741.184 44.5483Z"/><path fill="#1F1E14" d="M741.184 44.5483L742.388 45.0677C743.75 44.8104 744.2 44.4566 745.399 45.2231C746.921 49.1726 746.82 54.3609 746.523 58.5457C745.9 67.3263 744.072 76.2284 742.584 84.8989C739.574 102.441 736.32 119.978 733.697 137.58C732.623 144.786 731.277 152.244 730.797 159.511L731.772 159.629C732.734 157.939 732.113 155.159 733.267 153.911C734.039 154.98 733.511 156.484 733.302 157.763C732.026 165.546 730.91 173.725 730.168 181.57C729.147 179.221 730.257 176.985 728.617 174.736C726.099 188.801 724.543 209.73 719.585 222.426L719.248 223.307C710.012 215.307 701.904 206.188 692.695 198.121C698.769 194.286 703.654 188.931 709.693 185.171C700.331 188.554 691.594 192.438 681.611 193.708C680.447 192.471 679.242 191.257 678.199 189.915C683.524 184.017 688.72 178.15 693.431 171.739C698.284 165.133 702.639 158.137 707.685 151.683C702.857 155.361 697.938 159 693.453 163.097C688.367 167.744 683.655 172.946 678.078 177.017C677.401 177.812 676.89 178.292 675.974 178.797C674.986 181.711 671.538 189.575 672.326 192.208L673.01 191.924L672.483 192.334L672.322 192.214L673.061 191.8L673.66 190.707C678.839 192.626 723.257 243.026 729.046 250.581C734.056 257.119 738.829 264.2 742.257 271.713C746.249 280.465 749.702 290.547 748.646 300.255C748.23 304.086 747.14 308.212 747.348 312.061C747.651 317.696 750.45 323.035 750.77 328.635C747.497 325.532 746.885 314.929 745.318 310.227C743.209 303.901 740.293 296.965 736.843 291.28C731.761 282.905 721.785 270.445 711.997 268.298C701.57 266.012 690.878 270.104 682.29 275.905C674.936 280.872 673.414 284.383 668.392 291.008C666.448 293.573 664.417 295.014 663.798 298.232C662.683 291.406 663.421 284.473 661.52 277.709C658.296 266.234 651.018 254.523 644.018 244.985C625.963 220.386 583.745 178.518 557.438 163.801C565 160.907 609.363 169.182 622.223 168.562C624.868 168.434 627.421 167.731 629.974 167.077C621.196 164.521 612.198 162.187 603.225 160.431C623.591 144.864 641.493 126.78 659.826 108.967C669.547 99.3578 679.68 90.1057 689.711 80.8217C701.116 70.2658 713.002 58.6947 726.245 50.4444C730.558 47.7576 736.055 44.9014 741.184 44.5483Z"/><path fill="#D3826E" d="M742.388 45.0677C743.75 44.8104 744.2 44.4566 745.399 45.2231C746.921 49.1726 746.82 54.3609 746.523 58.5457C745.9 67.3263 744.072 76.2284 742.584 84.8989C739.574 102.441 736.32 119.978 733.697 137.58C732.623 144.786 731.277 152.244 730.797 159.511L731.772 159.629C732.734 157.939 732.113 155.159 733.267 153.911C734.039 154.98 733.511 156.484 733.302 157.763C732.026 165.546 730.91 173.725 730.168 181.57C729.147 179.221 730.257 176.985 728.617 174.736C726.099 188.801 724.543 209.73 719.585 222.426L719.248 223.307C710.012 215.307 701.904 206.188 692.695 198.121C698.769 194.286 703.654 188.931 709.693 185.171C700.331 188.554 691.594 192.438 681.611 193.708C680.447 192.471 679.242 191.257 678.199 189.915C683.524 184.017 688.72 178.15 693.431 171.739C698.284 165.133 702.639 158.137 707.685 151.683C702.857 155.361 697.938 159 693.453 163.097C688.367 167.744 683.655 172.946 678.078 177.017C678.265 172.812 679.974 168.01 680.976 163.9C687.866 135.654 700.14 110.46 714.834 85.4806C718.453 81.2673 721.421 75.5097 724.556 70.8527C730.39 62.1845 736.613 53.7804 742.388 45.0677Z"/><path fill="#0B0905" d="M730.797 159.511L731.772 159.629C732.734 157.939 732.113 155.159 733.267 153.911C734.039 154.98 733.511 156.484 733.302 157.763C732.026 165.546 730.91 173.725 730.168 181.57C729.147 179.221 730.257 176.985 728.617 174.736C728.381 170.265 729.814 163.927 730.797 159.511Z"/><path fill="#2A2012" d="M675.974 178.797C676.717 173.093 680.058 167.018 680.111 161.397C679.197 160.86 679.635 161.158 678.797 160.504C678.846 158.273 680.269 156.322 680.838 154.198C681.605 151.332 681.717 148.337 682.589 145.399C688.716 124.757 699.001 104.809 710.193 86.4571L710.41 86.7651L709.596 90.5089C710.207 90.1167 709.947 90.365 710.422 89.5915C710.589 89.3199 710.747 89.0433 710.912 88.7707C712.122 86.7729 712.534 86.0486 714.834 85.4806C700.14 110.46 687.866 135.654 680.976 163.9C679.974 168.01 678.265 172.812 678.078 177.017C677.401 177.812 676.89 178.292 675.974 178.797Z"/><path fill="#2A2012" d="M659.826 108.967C669.547 99.3578 679.68 90.1057 689.711 80.8217C701.116 70.2658 713.002 58.6947 726.245 50.4444C730.558 47.7576 736.055 44.9014 741.184 44.5483C737.483 48.8821 729.434 51.3106 724.413 54.1327C717.123 58.2309 710.773 64.6464 704.488 70.1012C697.376 76.2739 690.153 82.4196 683.139 88.6833C675.596 95.4185 668.465 102.668 660.92 109.424C660.054 109.283 660.405 109.463 659.826 108.967Z"/><path fill="#0B0905" d="M663.798 298.232C664.417 295.014 666.448 293.573 668.392 291.008C673.414 284.383 674.936 280.872 682.29 275.905C690.878 270.104 701.57 266.012 711.997 268.298C721.785 270.445 731.761 282.905 736.843 291.28C740.293 296.965 743.209 303.901 745.318 310.227C746.885 314.929 747.497 325.532 750.77 328.635C752.578 332.232 759.769 365.194 759.602 369.097C752.017 374.541 729.764 379.099 720.077 380.002C710.955 380.852 710 378.876 700.067 382.158C698.515 381.91 696.47 381.84 695.255 380.811C694.964 379.194 695.805 378.006 696.429 376.509C693.066 376.713 689.92 376.6 686.568 376.274C682.219 375.068 677.713 376.377 673.534 373.924L672.827 373.937C671.666 373.093 670.549 372.216 669.554 371.177C657.113 358.191 655.04 333.197 659.043 316.499C660.199 311.673 663.996 303.747 663.861 299.166C663.852 298.854 663.819 298.544 663.798 298.232Z"/><path fill="#EBB441" d="M678.706 289.21C680.215 285.767 690.035 279.494 693.642 278.075C700.401 275.417 707.493 275.128 714.185 278.241C724.513 283.046 730.618 293.7 734.174 304.048C739.069 318.288 738.945 333.65 732.139 347.27C725.998 359.561 714.113 370.955 700.913 375.257C699.437 375.738 697.941 376.155 696.429 376.509C693.066 376.713 689.92 376.6 686.568 376.274C682.219 375.068 677.713 376.377 673.534 373.924C671.264 368.462 661.68 348.855 663.093 343.63C663.807 345.822 664.982 347.923 666.126 349.919C669.541 355.876 674.617 361.262 681.511 362.931C687.15 364.296 693.712 362.803 698.589 359.797C706.571 354.878 711.165 344.797 713.203 335.967C716.064 323.568 714.122 308.608 707.246 297.78C703.763 292.295 698.521 287.099 691.947 285.8C686.72 284.768 682.969 286.498 678.706 289.21Z"/><path fill="#FEF4DD" d="M688.503 296.332C692.155 295.482 695.981 296.677 698.5 299.454C701.02 302.231 701.837 306.155 700.637 309.707C699.437 313.259 696.408 315.883 692.72 316.563C687.198 317.582 681.873 314.005 680.727 308.508C679.581 303.011 683.034 297.604 688.503 296.332Z"/><path fill="#D9CCB3" d="M290.308 339.708C293.141 345.527 296.905 350.564 300.2 356.087C299.004 358.687 299.5 362.679 299.632 365.504C300.498 381.792 303.841 397.853 309.546 413.134C327.719 462.196 367.614 494.808 414.02 516.078C467.276 540.487 541.56 553.605 599.482 543.573C616.176 540.682 634.303 534.607 650.201 528.661C658.779 525.453 667.099 521.677 675.346 517.7C677.604 515.948 680.767 514.627 683.302 513.242C683.337 514.236 683.267 515.333 683.538 516.289C681.087 518.218 678.397 519.792 675.744 521.421C630.501 551.384 571.169 565.255 517.363 559.96C443.755 552.717 368.753 517.928 321.451 460.001C293.502 425.775 285.984 382.77 290.308 339.708Z"/><path fill="#0B0905" d="M760.121 391.75C761.014 396.203 759.397 407.242 759.53 412.896L759.023 413.177C758.84 412.457 758.842 412.21 759.005 411.469C759.178 410.684 759.14 410.404 758.922 409.649C758.746 407.035 758.79 404.383 758.748 401.763C741.7 407.4 725.064 412.971 708.542 420.004C719.007 412.042 731.205 405.359 743.474 400.736C748.13 398.982 754.27 398.029 758.491 395.543C759.758 394.796 759.794 393.061 760.121 391.75Z"/><path fill="#7E6124" d="M673.534 373.924C677.713 376.377 682.219 375.068 686.568 376.274C689.92 376.6 693.066 376.713 696.429 376.509C695.805 378.006 694.964 379.194 695.255 380.811C696.47 381.84 698.515 381.91 700.067 382.158L696.742 382.63C694.413 383.103 691.759 383.099 689.38 383.006C684.468 382.814 679.975 381.1 676.601 377.445C675.411 376.156 674.177 375.054 672.827 373.937L673.534 373.924Z"/><path fill="#2A2012" d="M686.568 376.274C689.92 376.6 693.066 376.713 696.429 376.509C695.805 378.006 694.964 379.194 695.255 380.811C696.47 381.84 698.515 381.91 700.067 382.158L696.742 382.63C695.287 382.609 693.968 382.621 692.648 381.943C689.707 380.433 686.189 379.923 683.38 378.257C683.172 378.134 682.968 378.004 682.762 377.878L683.497 378.466L682.79 378.031L683.134 377.347C684.307 377.313 684.843 377.33 685.899 376.719C686.131 376.584 686.345 376.422 686.568 376.274Z"/><path fill="#0B0905" d="M655.283 395.21L655.966 395.165C663.866 394.685 672.26 395.048 678.411 400.742C680.674 402.837 682.449 405.473 682.403 408.661C682.254 418.91 670.623 423.692 664.686 430.037C660.131 434.905 656.869 440.554 652.024 445.331C651.892 445.972 651.74 446.612 651.616 447.254C650.494 453.082 645.244 462.937 646.103 468.236C646.418 470.176 647.926 471.793 649.496 472.854C656.379 477.503 665.259 479.011 673.313 477.322C689.853 473.854 698.632 462.668 707.42 449.27C705.326 458.064 701.519 465.833 695.194 472.404C687.694 480.195 677.466 484.422 666.672 484.563C657.836 484.677 645.768 481.108 639.412 474.922C625.115 488.804 608.229 496.166 588.258 496.804C569.355 497.409 554.565 486.537 541.405 474.258C531.526 477.246 521.763 480.599 512.134 484.312C492.194 491.993 473.299 501.308 453.878 510.123C458.885 505.569 465.377 501.864 471.212 498.437C492.666 485.839 514.115 476.93 538.285 471.078C536.938 469.737 535.389 468.54 533.943 467.303C536.78 468.349 539.77 469.856 542.804 470.101C543.041 470.12 543.28 470.128 543.517 470.145C546.908 470.391 550.272 469.42 553.568 468.699C551.515 470.031 548.758 471.4 547.269 473.347L547.67 474.176C566.793 484.233 579.878 491.582 602.51 486.39C615.398 483.434 631.069 473.785 638.089 462.357C640.282 458.787 644.073 452.04 643.712 447.756C643.434 444.46 640.937 443.546 639.102 441.187C637.162 438.691 636.9 435.152 634.671 432.823C629.501 427.42 609.647 417.169 608.195 409.105C607.853 407.207 608.661 405.388 609.872 403.979C616.63 396.112 644.938 396.05 655.283 395.21Z"/><path fill="#D3826E" d="M664.012 400.714C666.279 400.789 668.645 400.963 670.848 401.518C673.026 402.066 675.27 403.152 676.338 405.242C677.222 406.971 677.008 409.04 676.312 410.793C673.735 417.29 663.345 424.232 657.02 426.756C649.751 429.657 640.699 427.257 633.83 424.224C626.04 420.364 618.123 415.827 614.981 407.34C626.885 400.533 650.074 401.318 664.012 400.714Z"/><path fill="#BC3F31" d="M657.402 429.234C656.549 432.722 653.362 436.63 650.373 438.524C648.064 439.987 646.454 440.232 643.81 439.668C643.406 438.86 643.078 438.032 642.785 437.178C642.218 435.529 642.064 434.405 642.86 432.772C646.107 429.947 653.157 430.175 657.402 429.234Z"/><path fill="#0B0905" d="M449.239 428.216C473.833 427.323 525.184 428.669 546.538 438.816C538.418 438.35 530.281 437.301 522.157 436.707C495.535 434.76 468.717 433.223 442.025 434.438C410.499 435.024 380.251 438.672 349.614 446.238C354.26 443.348 360.041 441.97 365.239 440.352C392.973 431.714 420.369 429.606 449.239 428.216Z"/><path fill="#0B0905" d="M505.867 454.217C515.199 453.481 524.744 454.015 534.038 454.961C522.552 458.013 509.853 458.118 498.077 460.212C470.821 464.957 443.926 471.577 417.582 480.027C409.954 482.499 402.642 485.792 395.02 488.276C400.308 483.936 406.635 481.887 412.78 479.099C442.449 465.64 473.241 456.645 505.867 454.217Z"/><path fill="#F9A68D" d="M342.819 54.5922C347.063 50.1331 351.528 46.1847 358.04 45.848C359.996 45.7469 362.015 45.9625 363.967 46.1102C376.395 62.8903 387.418 81.8067 396.169 100.759C400.116 109.307 403.409 118.145 407.18 126.771C415.086 144.861 424.693 166.26 427.683 185.806C416.895 175.558 401.167 162.288 387.349 156.45C393.476 165.475 409.277 186.485 410.883 196.282L410.471 197.408C409.516 197.747 409.358 197.878 408.405 197.364C404.977 195.516 402.144 191.353 399.127 188.787C394.068 184.485 388.729 180.493 383.549 176.338C376.692 171.952 369.671 168.189 362.28 164.783C370.872 171.93 382.964 183.118 389.216 192.133C391.224 195.132 393.093 198.13 394.272 201.564L388.613 200.301C378.081 197.591 369.293 200.511 358.921 202.43C366.811 205.568 376.214 209.272 382.496 215.062C368.315 226.443 353.316 236.76 339.445 248.552C328.505 228.889 317.573 205.239 314.819 182.73C313.306 170.369 313.138 156.246 314.367 143.854C315.037 137.093 316.877 130.612 318.244 123.979C323.059 100.617 327.823 73.8799 342.819 54.5922Z"/><path fill="#D3826E" d="M342.819 54.5922C347.063 50.1331 351.528 46.1847 358.04 45.848C359.996 45.7469 362.015 45.9625 363.967 46.1102C376.395 62.8903 387.418 81.8067 396.169 100.759C400.116 109.307 403.409 118.145 407.18 126.771C415.086 144.861 424.693 166.26 427.683 185.806C416.895 175.558 401.167 162.288 387.349 156.45C393.476 165.475 409.277 186.485 410.883 196.282L410.471 197.408C409.516 197.747 409.358 197.878 408.405 197.364C404.977 195.516 402.144 191.353 399.127 188.787C394.068 184.485 388.729 180.493 383.549 176.338L384.004 175.418C383.295 171.226 381.544 166.888 380.256 162.824C377.645 154.604 374.992 146.398 372.297 138.206C364.919 115.599 357.894 92.986 349.602 70.6799C347.783 65.7862 346.015 58.6221 342.819 54.5922Z"/><path fill="#BC3F31" d="M371.418 570.132C372.988 567.338 375.393 564.253 376.015 561.082C376.762 557.273 376.183 552.963 376.301 549.075C376.436 544.664 377.865 529.754 380.956 527.188C382.35 526.031 382.944 526.377 384.583 526.584C415.131 542.576 448.592 555.247 482.599 561.411C497.946 564.192 513.431 565.58 528.969 566.748C541.646 567.701 560.157 568.84 572.438 566.58C577.596 577.658 579.618 583.561 577.546 595.907C577.135 598.358 576.883 601.631 575.938 603.898C575.086 605.942 573.645 606.675 571.668 607.402C557.571 612.586 541.053 612.187 526.253 611.616C508.021 610.914 489.415 609.671 471.502 606.075C456.401 603.044 441.538 598.365 426.862 593.743C413.881 589.655 400.772 585.525 388.498 579.585C382.68 576.77 376.831 573.67 371.418 570.132Z"/><path fill="#EBB441" d="M486.211 279.176C501.191 277.696 517.096 282.767 529.055 291.656C541.84 301.159 551.204 316.697 553.486 332.506C555.245 345.098 551.913 357.871 544.228 367.999C536.735 377.822 526.765 383.166 514.618 384.822C497.902 386.233 481.197 382.792 467.621 372.556C455.646 363.526 448.993 350.91 447.007 336.131C445.169 322.451 448.277 306.235 456.881 295.212C464.087 285.982 474.687 280.569 486.211 279.176Z"/><path fill="#0B0905" d="M497.097 288.591C504.131 287.802 510.77 289.424 516.531 293.539C525.115 299.67 529.179 309.666 530.856 319.773C533.018 332.811 531.269 347.213 523.291 358.099C518.454 364.698 511.992 368.453 503.922 369.747C498.07 370.232 492.056 368.995 487.053 365.865C478.374 360.436 472.812 350.825 470.492 341.044C467.565 328.699 469.059 314.075 475.899 303.224C481.053 295.048 487.719 290.697 497.097 288.591Z"/><path fill="#FEF4DD" d="M509.263 299.379C514.716 297.458 520.694 300.319 522.62 305.77C524.546 311.222 521.692 317.203 516.242 319.134C510.785 321.068 504.793 318.209 502.865 312.75C500.936 307.29 503.801 301.302 509.263 299.379Z"/><defs><linearGradient id="gradient_1" gradientUnits="userSpaceOnUse" x1="559.01825" y1="657.63385" x2="622.38538" y2="648.99292"><stop offset="0" stop-color="#C88F36"/><stop offset="1" stop-color="#FFC43B"/></linearGradient></defs><path fill="url(#gradient_1)" d="M585.436 621.715C586.667 621.615 587.707 621.555 588.939 621.723C587.935 622.278 587.016 622.864 586.084 623.533C595.301 623.875 597.731 620.032 608.234 624.375C614.251 626.863 618.708 631.27 621.071 637.365C624.232 645.516 623.355 654.955 619.922 662.867C615.806 672.352 608.685 678.965 599.144 682.73L598.251 682.953C589.601 685.055 580.403 683.913 572.802 679.134C565.65 674.623 560.593 667.445 558.753 659.192C556.966 651.527 558.348 643.465 562.586 636.832C567.704 628.96 576.356 623.667 585.436 621.715Z"/><path fill="#0B0905" d="M598.405 658.236C601.448 656.954 606.543 654.131 609.83 655.184C610.57 655.421 610.352 655.495 610.681 656.344C609.241 662.666 602.847 664.064 601.215 673.348C602.146 673.342 602.9 673.315 603.795 673.622C604.611 673.901 604.307 673.772 604.718 674.741C604.518 675.225 604.39 675.612 604.047 676.038C602.743 677.661 599.426 678.775 597.399 678.658C596.122 678.584 595.476 678.035 594.628 677.172C594.216 675.672 594.299 675.004 594.651 673.545C594.875 671.081 595.534 667.947 593.741 665.959C591.25 663.198 586.575 660.978 585.751 657.127C586.096 656.43 586.031 656.189 586.82 655.877C590.415 654.455 595.064 656.912 598.405 658.236Z"/><path fill="#2A2012" d="M594.651 673.545C596.484 674.046 598.069 674.555 599.98 674.366L601.215 673.348C602.146 673.342 602.9 673.315 603.795 673.622C604.611 673.901 604.307 673.772 604.718 674.741C604.518 675.225 604.39 675.612 604.047 676.038C602.743 677.661 599.426 678.775 597.399 678.658C596.122 678.584 595.476 678.035 594.628 677.172C594.216 675.672 594.299 675.004 594.651 673.545Z"/><path fill="#FEF4DD" d="M600.079 629.655C601.974 629.949 604.01 630.187 605.702 631.158C608.017 632.486 610.352 635.326 610.895 637.972C611.183 639.372 610.954 640.838 610.036 641.969C608.567 643.778 606.437 643.989 604.275 644.25C601.59 644.17 598.519 643.996 596.249 642.42C594.309 641.075 592.632 638.949 592.327 636.552C592.147 635.134 592.572 633.807 593.441 632.7C595.266 630.378 597.274 630.076 600.079 629.655Z"/><path fill="#963024" d="M335.097 491.644C341.762 495.857 347.667 502.254 353.965 507.106C363.551 514.489 374.144 520.514 384.583 526.584C382.944 526.377 382.35 526.031 380.956 527.188C377.865 529.754 376.436 544.664 376.301 549.075C376.183 552.963 376.762 557.273 376.015 561.082C375.393 564.253 372.988 567.338 371.418 570.132C371.387 570.115 371.353 570.101 371.323 570.082C357.745 561.472 330.136 543.7 326.26 528.021C324.199 519.687 330.706 498.825 335.097 491.644Z"/><path fill="#BC3F31" d="M661.449 543.565C662.851 543.449 664.352 543.186 665.639 543.871C666.553 544.357 667.09 545.632 667.391 546.583C669.431 553.051 665.801 561.933 662.925 567.798C653.956 586.09 627.366 594.859 609.176 601.202C607.251 601.647 605.673 602.143 603.821 601.276C602.901 598.813 602.777 568.512 603.809 566.207C604.711 564.193 611.525 562.531 613.734 561.829C630.114 556.619 645.441 549.698 661.449 543.565Z"/><path fill="#F7EB46" d="M582.967 561.921L595.952 558.214C596.521 561.624 597.128 565.028 597.775 568.424C599.646 581.893 597.633 597.606 595.262 610.965C591.884 611.039 588.475 611.02 585.105 611.221C588.214 598.738 587.235 584.686 585.199 572.064C584.532 568.672 583.718 565.297 582.967 561.921Z"/><path fill="#EBB441" d="M582.967 561.921L595.952 558.214C596.521 561.624 597.128 565.028 597.775 568.424C593 568.51 589.373 569.811 585.199 572.064C584.532 568.672 583.718 565.297 582.967 561.921Z"/></svg>