<?xml version="1.0" encoding="utf-8" ?><svg xmlns="http://www.w3.org/2000/svg" xmlns:xlink="http://www.w3.org/1999/xlink" width="1024" height="1024" viewBox="0 0 1024 1024"><path fill="#16150F" d="M324.657 486.728L324.235 486.13C316.351 475.059 307.997 467.038 300.685 454.802C279.043 418.587 278.31 373.019 284.863 332.365C286.567 321.791 288.703 311.086 291.634 300.78C294.136 291.988 298.809 282.487 299.408 273.405C299.877 266.31 299.113 259.009 298.749 251.907C298.03 239.508 297.488 227.099 297.123 214.685C296.703 196.262 296.497 177.615 297.851 159.235C300.324 125.687 310.619 60.4998 339.299 39.5366C345.416 35.0657 352.792 33.1302 360.316 34.3732C392.58 39.7038 421.997 85.1021 441.575 109.304C453.854 124.647 466.743 139.492 480.211 153.803C514.901 153.175 549.993 151.702 584.654 153.805C610.998 131.476 637.494 109.327 664.141 87.3602C682.097 72.4379 700.013 55.5777 719.954 43.4269C726.996 39.136 735.023 34.7269 743.533 35.2736C747.728 35.5432 751.595 37.2287 754.247 40.5578C759.622 47.3023 758.804 58.0195 757.685 66.032C755.208 83.7527 750.538 101.087 746.964 118.596C740.904 148.161 736.326 178.01 733.249 208.033C732.239 218.532 731.161 229.171 731 239.725C745.147 256.075 753.985 272.812 754.621 294.813C754.794 300.77 753.633 307.491 755.149 313.263C756.689 319.124 759.61 324.722 761.641 330.449C768.859 350.808 774.55 372.529 773.076 394.31C772.634 400.842 771.453 407.176 770.209 413.585C792.37 410.189 825.986 409.062 846.797 417.638C820.592 416.649 795.503 412.445 769.307 417.702C765.971 428.314 762.253 438.403 757.926 448.647C773.319 449.164 809.729 460.124 824.429 466.318C830.721 468.969 836.603 472.343 842.458 475.827C831.036 472.31 819.793 468.177 808.349 464.767C791.042 459.644 773.47 455.463 755.71 452.244C751.624 459.78 746.729 466.682 741.778 473.659C762.196 482.059 784.676 493.039 796.196 512.768C782.636 499.254 756.259 483.062 737.607 477.982C725.675 493.257 711.316 506.47 695.103 517.093C689.44 520.878 682.253 524.038 677.287 528.612C675.275 530.466 675.372 532.642 675.668 535.227C676.101 538.999 677.202 542.768 677.862 546.514C679.71 557.009 679.639 568.428 674.177 577.845C695.76 603.154 710.291 633.895 722.573 664.602C728.532 679.501 734.013 694.797 741.046 709.231C752.219 732.164 767.555 752.539 775.923 776.841C781.464 792.935 784.777 809.828 783.468 826.893C781.634 850.798 772.166 877.376 753.456 893.272C740.464 904.311 724.626 909.282 707.648 907.842C703.91 907.524 700.069 906.85 696.397 906.08C696.702 917.356 697.885 928.558 697.982 939.863C698.143 958.703 696.335 977.839 694.295 996.554C693.326 1005.45 692.645 1015.35 690.319 1024L678.811 1024L283.461 1024L190.65 1024C192.816 971.612 201.772 926.075 218.926 876.517C231.207 841.037 245.617 806.661 254.595 770.09C258.216 755.338 261.525 740.338 264.034 725.353C270.158 688.765 274.031 651.515 285.391 616.049C290.255 600.864 296.148 585.709 303.436 571.511C307.957 562.704 314.073 554.171 317.297 544.795C316.351 541.32 315.274 537.8 314.956 534.199C313.551 518.31 322.38 502.401 324.657 486.728Z"/><path fill="#FCF5E2" d="M331.075 934.948L331.785 935.268C340.021 939.018 347.514 944.094 355.869 947.683C388.814 961.838 423.706 962.33 457.326 949.949C478.315 942.219 493.577 930.384 516.483 940.908C527.127 945.799 536.979 952.612 547.553 957.777C569.954 968.717 599.808 972.427 623.561 963.764C628.649 961.909 633.295 959.46 637.742 956.373C647.13 949.859 657.592 938.18 670.263 943.953C678.117 947.532 682.488 958.575 685.057 966.235C685.323 967.028 685.519 967.802 685.714 968.615C684.55 986.27 682.62 1006.79 678.811 1024L283.461 1024C303.198 995.862 319.863 967.548 331.075 934.948Z"/><path fill="#CBC0AD" d="M521.19 872.921C531.961 884.833 545.665 901.988 562.973 902.926C567.645 903.179 572.404 902.143 576.795 900.616C587.148 906.327 598.385 908.578 610.002 905.232C615.34 903.694 619.985 900.879 624.401 897.572C638.549 904.269 654.912 906.081 669.817 900.671C671.919 899.908 673.961 898.985 675.996 898.062C679.218 899.414 682.471 900.687 685.753 901.883C688.921 918.114 687.538 935.648 686.698 952.076C686.42 957.508 686.469 963.241 685.714 968.615C685.519 967.802 685.323 967.028 685.057 966.235C682.488 958.575 678.117 947.532 670.263 943.953C657.592 938.18 647.13 949.859 637.742 956.373C633.295 959.46 628.649 961.909 623.561 963.764C599.808 972.427 569.954 968.717 547.553 957.777C536.979 952.612 527.127 945.799 516.483 940.908C493.577 930.384 478.315 942.219 457.326 949.949C423.706 962.33 388.814 961.838 355.869 947.683C347.514 944.094 340.021 939.018 331.785 935.268L331.075 934.948C332.839 929.036 334.391 923.062 335.729 917.039C355.878 932.971 376.582 939.64 402.447 936.7C436.19 932.866 471.253 910.716 497.971 890.937C505.842 885.11 513.272 878.67 521.19 872.921Z"/><path fill="#FCF5E2" d="M326.755 554.081C328.342 555.533 329.979 556.929 331.663 558.267C345.875 569.632 362.41 577.976 378.846 585.592C437.236 612.651 502.959 627.339 567.321 620.273C568.508 622.339 570.639 624.229 571.297 626.505L570.676 627.121C562.943 635.204 557.976 644.736 558.177 656.16C558.207 657.848 558.401 659.54 558.586 661.217C560.824 671.345 565.31 680.079 574.307 685.758C582.919 691.194 593.501 692.509 603.347 690.253C613.589 687.905 622.346 681.982 627.873 672.987C628.403 672.14 628.911 671.279 629.395 670.405C633.154 662.358 633.92 653.235 631.556 644.673C628.359 633.135 621 626.999 610.92 621.334C611.312 618.5 611.05 615.3 611.031 612.429C624.709 609.025 639.393 602.969 651.314 595.596C656.574 592.343 661.309 588.318 666.549 585.082L667.193 585.403C687.88 611.682 701.652 640.219 714.118 671.087C720.271 686.322 725.914 701.838 733.079 716.638C743.93 739.053 759.382 759.018 766.979 782.999C771.684 798.195 773.133 814.213 771.231 830.007C770.114 839.188 767.563 847.988 763.935 856.48C756.059 873.192 745.975 888.107 727.913 894.707C719.521 897.773 710.274 898.786 701.968 894.837C700.54 894.165 699.148 893.417 697.798 892.599C702.061 889.791 706.122 887.002 709.653 883.286C721.217 871.113 727.959 851.351 731.274 835.214C732.348 829.99 735.377 809.343 733.054 805.274L732.498 805.417C729.965 811.143 728.349 820.834 726.448 827.26C724.395 834.201 722.278 841.245 719.233 847.828C713.536 860.146 699.878 879.181 686.697 884.266C685.099 884.882 683.29 885.155 681.647 884.523C679.765 883.8 678.876 881.982 678.293 880.179C678.021 879.337 677.838 878.462 677.658 877.597C676.21 863.35 679.69 849.402 678.658 835.271C673.411 849.523 671.022 863.044 667.855 877.782C667.512 881.631 667.514 884.957 668.398 888.767C657.215 893.535 646.641 893.704 634.84 890.916C638.33 887.432 641.579 883.878 644.682 880.048C647.466 874.833 649.718 869.468 651.231 863.744C657.475 840.131 653.086 817.209 640.916 796.4C637.827 792.201 633.459 785.077 628.982 782.465C627.636 782.184 626.749 781.792 625.613 780.993C623.666 779.623 621.693 777.896 621.291 775.459C621.132 775.38 620.967 775.309 620.813 775.22C618.677 773.985 616.751 771.851 614.823 770.287C611.308 767.433 607.687 764.712 603.969 762.129C578.529 744.529 550.241 734.706 519.276 741.914C504.906 745.259 491.74 751.444 478.332 757.404C466.373 762.72 454.417 767.961 442.695 773.795C443.197 755.728 439.497 732.172 433.017 715.163C430.656 708.965 427.544 703.274 424.24 697.549C430.487 721.751 437.657 753.739 430.68 778.284C425.269 782.084 419.197 784.941 413.431 788.16C404.848 792.952 396.76 798.345 389.219 804.666C400.374 799.833 411.966 796.138 423.117 791.317C431.102 787.864 438.862 783.904 446.83 780.409C459.73 774.752 472.897 769.602 486.024 764.499C500.276 758.957 514.598 753.229 529.889 751.37C544.311 749.617 558.246 751.623 571.71 757.01C595.532 766.54 626.786 788.713 636.995 812.687C644.026 829.197 644.902 849.387 638.069 866.093C636.583 869.725 634.709 873.121 632.772 876.528C631.807 861.768 628.966 841.588 620.459 829.155C625.584 846.3 628.01 865.556 620.579 882.396C616.767 888.379 612.213 892.763 605.068 894.397C599.004 895.783 593.04 895.032 587.101 893.452C588.203 890.735 589.085 888.126 589.764 885.272C592.453 869.485 590.147 848.762 580.991 835.271C584.984 849.892 584.781 864.029 582.058 878.896C580.669 883.127 578.687 886.812 574.553 888.925C569.681 891.415 562.524 891.048 557.483 889.289C539.103 882.877 515.362 848.96 504.088 833.075C504.36 844.146 507.003 849.592 511.149 859.624C491.824 881.622 454.866 907.482 427.559 917.803C418.789 921.117 409.727 923.286 400.357 923.873C381.232 925.071 359.427 917.843 345.119 905.013C339.59 899.982 334.727 894.265 330.65 888C313.943 863.471 310.354 839.009 305.268 810.782C303.241 800.015 302.487 788.877 301.604 777.966C300.24 761.122 299.131 744.172 296.897 727.417C294.898 712.427 290.187 698.497 286.673 683.876C285.79 680.204 285.052 676.414 285.139 672.62C285.664 649.876 301.728 603.83 311.248 582.9C315.75 573.002 321.08 563.35 326.755 554.081Z"/><path fill="#CBC0AD" d="M330.65 888C335.26 888.396 342.17 893.182 347.258 894.798C363.984 900.112 388.988 899.079 405.903 894.837C437.898 886.812 460.324 874.775 482.932 850.256C487.617 845.175 493.112 839.44 496.728 833.575C498.865 830.109 498.012 825.068 500.093 821.585C505.819 822.499 516.244 840.306 519.902 845.321C523.433 850.08 527.071 854.759 530.815 859.353C534.151 863.483 537.915 867.249 542.042 870.588C550.973 877.9 559.686 882.894 571.635 881.022C574.757 880.533 577.98 879.187 581.057 878.954C581.391 878.928 581.725 878.915 582.058 878.896C580.669 883.127 578.687 886.812 574.553 888.925C569.681 891.415 562.524 891.048 557.483 889.289C539.103 882.877 515.362 848.96 504.088 833.075C504.36 844.146 507.003 849.592 511.149 859.624C491.824 881.622 454.866 907.482 427.559 917.803C418.789 921.117 409.727 923.286 400.357 923.873C381.232 925.071 359.427 917.843 345.119 905.013C339.59 899.982 334.727 894.265 330.65 888Z"/><path fill="#CBC0AD" d="M326.755 554.081C328.342 555.533 329.979 556.929 331.663 558.267C345.875 569.632 362.41 577.976 378.846 585.592C437.236 612.651 502.959 627.339 567.321 620.273C568.508 622.339 570.639 624.229 571.297 626.505L570.676 627.121C564.176 626.697 556.217 628.965 549.647 629.758C540.117 630.821 530.528 631.264 520.94 631.083C475.312 630.357 414.904 608.341 373.501 589.342C361.853 583.997 345.121 574.579 333.364 584.596C325.106 591.631 320.737 603.084 317.068 612.996C307.172 639.736 302.246 666.049 300.555 694.499C299.744 706.66 299.623 718.856 300.19 731.03C300.748 742.69 308.735 806.067 305.408 810.58C305.359 810.646 305.314 810.714 305.268 810.782C303.241 800.015 302.487 788.877 301.604 777.966C300.24 761.122 299.131 744.172 296.897 727.417C294.898 712.427 290.187 698.497 286.673 683.876C285.79 680.204 285.052 676.414 285.139 672.62C285.664 649.876 301.728 603.83 311.248 582.9C315.75 573.002 321.08 563.35 326.755 554.081Z"/><path fill="#CBC0AD" d="M677.658 877.597C684.774 873.816 691.932 869.89 698.115 864.67C715.171 850.272 729.277 813.084 731.219 791.181C733.37 795 734.97 798.974 736.183 803.183C741.693 822.289 739.436 845.54 729.846 862.974C739.18 864.379 746.321 862.896 755.002 859.459C757.944 858.295 760.788 856.969 763.935 856.48C756.059 873.192 745.975 888.107 727.913 894.707C719.521 897.773 710.274 898.786 701.968 894.837C700.54 894.165 699.148 893.417 697.798 892.599C702.061 889.791 706.122 887.002 709.653 883.286C721.217 871.113 727.959 851.351 731.274 835.214C732.348 829.99 735.377 809.343 733.054 805.274L732.498 805.417C729.965 811.143 728.349 820.834 726.448 827.26C724.395 834.201 722.278 841.245 719.233 847.828C713.536 860.146 699.878 879.181 686.697 884.266C685.099 884.882 683.29 885.155 681.647 884.523C679.765 883.8 678.876 881.982 678.293 880.179C678.021 879.337 677.838 878.462 677.658 877.597Z"/><defs><linearGradient id="gradient_0" gradientUnits="userSpaceOnUse" x1="625.6402" y1="734.95966" x2="743.21069" y2="745.51654"><stop offset="0" stop-color="#030100"/><stop offset="1" stop-color="#231D10"/></linearGradient></defs><path fill="url(#gradient_0)" d="M686.741 728.511C688.552 722.4 689.725 716.118 690.242 709.764C690.709 703.33 689.75 696.673 691.949 690.517C694.215 703.31 696.179 715.991 693.921 728.94C711.61 734.035 731.885 739.209 741.832 756.364L741.418 757.102C741.994 758.215 742.227 758.454 742.103 759.68C740.871 760.008 740.79 759.65 739.711 759.011C738.787 758.464 738.685 758.222 737.597 758.167C737.398 758.061 737.199 757.957 737.001 757.848C732.519 755.39 728.617 751.442 724.153 748.78C711.306 741.116 690.373 736.052 675.706 739.967C662.091 743.601 648.563 753.693 639.749 764.503C635.648 769.752 631.032 776.085 628.982 782.465C627.636 782.184 626.749 781.792 625.613 780.993C623.666 779.623 621.693 777.896 621.291 775.459C623.441 770.051 627.147 764.767 630.697 760.192C644.481 742.668 664.619 731.285 686.741 728.511Z"/><path fill="#CBC0AD" d="M558.586 661.217C560.824 671.345 565.31 680.079 574.307 685.758C582.919 691.194 593.501 692.509 603.347 690.253C613.589 687.905 622.346 681.982 627.873 672.987C628.403 672.14 628.911 671.279 629.395 670.405C629.848 671.319 630.365 672.313 630.459 673.342C630.853 677.643 628.204 682.463 625.623 685.704C618.876 694.177 609.004 698.245 598.414 699.361C587.771 700.483 575.447 698.215 566.989 691.309C560.831 686.281 556.686 678.683 556.103 670.714C555.852 667.278 556.313 663.884 558.586 661.217Z"/><path fill="#CBC0AD" d="M611.031 612.429C624.709 609.025 639.393 602.969 651.314 595.596C656.574 592.343 661.309 588.318 666.549 585.082L667.193 585.403C665.702 592.656 656.164 598.964 650.351 602.835C641.842 608.5 631.338 612.359 621.785 615.96C618.765 617.099 615.206 617.952 612.351 619.392C611.503 619.82 611.252 620.501 610.92 621.334C611.312 618.5 611.05 615.3 611.031 612.429Z"/><path fill="#CBC0AD" d="M644.682 880.048C651.81 882.795 660.938 879.814 667.855 877.782C667.512 881.631 667.514 884.957 668.398 888.767C657.215 893.535 646.641 893.704 634.84 890.916C638.33 887.432 641.579 883.878 644.682 880.048Z"/><path fill="#CBC0AD" d="M589.764 885.272C597.763 886.385 603.076 887.922 611.025 885.207C613.973 884.2 617.082 882.83 620.172 882.439C620.307 882.422 620.443 882.411 620.579 882.396C616.767 888.379 612.213 892.763 605.068 894.397C599.004 895.783 593.04 895.032 587.101 893.452C588.203 890.735 589.085 888.126 589.764 885.272Z"/><path fill="#CBC0AD" d="M628.982 782.465C631.032 776.085 635.648 769.752 639.749 764.503C640.144 765.204 640.508 765.828 640.613 766.644C641.123 770.635 640.14 775.415 640.187 779.509C640.235 783.76 642.099 791.889 641.144 795.604C641.075 795.871 640.992 796.135 640.916 796.4C637.827 792.201 633.459 785.077 628.982 782.465Z"/><path fill="#0A0703" d="M741.832 756.364C744.765 760.096 746.658 764.779 748.656 769.055C745.085 765.42 740.953 761.949 737.597 758.167C738.685 758.222 738.787 758.464 739.711 759.011C740.79 759.65 740.871 760.008 742.103 759.68C742.227 758.454 741.994 758.215 741.418 757.102L741.832 756.364Z"/><path fill="#FCF5E2" d="M549.381 162.731C551.192 163.105 553.019 163.417 554.836 163.757C565.401 171.169 575.303 180.716 585.11 189.147C608.347 209.124 661.073 252.144 670.956 279.384C671.215 279.327 671.476 279.278 671.733 279.214C675.178 278.354 679.017 275.499 682.509 274.183C693.607 269.998 705.867 272.687 715.916 278.18C728.753 285.196 738.206 297.815 742.532 311.664C742.692 309.84 742.917 308.028 743.143 306.212C743.257 306.315 743.401 306.392 743.484 306.521C744.209 307.636 744.648 308.719 745.479 309.832C746.472 305.644 745.607 301.389 746.299 297.167C746.324 297.018 746.353 296.868 746.38 296.719C747.284 305.317 744.489 313.204 745.618 320.313C747.029 329.199 750.374 338.507 753.076 347.107C754.19 350.651 755.707 354.469 756.169 358.151L756.417 359.142C756.665 360.108 757.003 360.948 757.384 361.865C757.834 362.944 758.149 363.733 757.742 364.912C756.291 369.117 751.122 371.011 749.012 374.822C753.019 372.321 756.163 369.086 759.15 365.46C762.967 382.643 762.923 397.497 759.256 414.789C744.723 417.408 724.345 421.026 712.552 429.996C727.237 424.999 742.82 422.357 758.024 419.405C755.486 428.938 751.991 437.775 747.59 446.593C737.346 445.107 726.331 444.289 716.051 445.66C715.002 446.972 713.986 448.363 712.785 449.536C723.593 448.792 734.131 449.532 744.87 450.799C741.146 457.257 736.929 463.238 732.45 469.188C726.613 467.124 717.07 462.732 710.993 464.631L710.779 465.71C713.834 469.977 723.951 472.21 728.879 473.879C718.184 486.899 702.082 502.328 687.951 511.427C674.951 521.596 653.703 533.831 637.475 536.573C644.498 537.581 651.353 537.931 658.443 537.876C643.146 549.024 614.908 558.978 596.466 563.91C581.084 558.989 584.552 565.754 571.378 566.419C564.207 566.78 556.726 566.081 549.539 565.817C493.36 563.75 438.55 552.199 388.067 526.885C375.164 520.415 361.481 512.946 350.686 503.274C364.17 510.839 380.931 519.675 396.638 520.639C371.036 511.252 347.22 492.678 328.815 472.756C293.975 435.046 293.451 396.117 295.195 348.422C298.419 356.486 302.618 363.6 307.595 370.689C330.462 398.107 371.22 409.906 405.669 413.029C441.698 416.296 480.211 412.523 514.269 399.992C522.279 397.046 529.869 393.261 537.586 389.647C547.506 384.364 554.618 375.735 563.935 369.788C564.052 373.103 564.13 376.262 563.028 379.444C563.151 380.294 562.987 379.93 563.473 380.556C564.021 380.277 564.272 380.169 564.76 379.858C574.674 373.542 579.624 355.484 581.842 344.736C584.428 332.202 585.017 319.567 585.073 306.811C585.454 268.786 578.678 231.028 565.101 195.508C560.782 184.069 556.137 172.985 549.381 162.731Z"/><path fill="#CBC0AD" d="M295.195 348.422C298.419 356.486 302.618 363.6 307.595 370.689C306.856 373.377 307.303 377.013 307.389 379.816C307.911 396.816 311.599 414.659 320.033 429.564C327.296 442.398 336.405 455.257 346.542 465.985C375.377 496.499 416.2 518.283 456.443 529.304C475.939 534.644 492.79 535.595 512.73 537.244C519.756 537.825 526.791 539.028 533.843 539.025C531.7 536.846 529.94 534.667 528.254 532.11L529.079 532.175C537.633 532.897 545.881 536.091 554.381 537.36C581.85 541.461 610.507 538.156 637.008 530.139C646.588 527.241 656.08 524.064 665.243 520.017C671.675 517.175 677.961 513.659 684.476 511.067C685.816 510.533 686.842 510.333 687.951 511.427C674.951 521.596 653.703 533.831 637.475 536.573C644.498 537.581 651.353 537.931 658.443 537.876C643.146 549.024 614.908 558.978 596.466 563.91C581.084 558.989 584.552 565.754 571.378 566.419C564.207 566.78 556.726 566.081 549.539 565.817C493.36 563.75 438.55 552.199 388.067 526.885C375.164 520.415 361.481 512.946 350.686 503.274C364.17 510.839 380.931 519.675 396.638 520.639C371.036 511.252 347.22 492.678 328.815 472.756C293.975 435.046 293.451 396.117 295.195 348.422Z"/><path fill="#0A0703" d="M670.956 279.384C671.215 279.327 671.476 279.278 671.733 279.214C675.178 278.354 679.017 275.499 682.509 274.183C693.607 269.998 705.867 272.687 715.916 278.18C728.753 285.196 738.206 297.815 742.532 311.664C742.692 309.84 742.917 308.028 743.143 306.212C743.257 306.315 743.401 306.392 743.484 306.521C744.209 307.636 744.648 308.719 745.479 309.832C746.472 305.644 745.607 301.389 746.299 297.167C746.324 297.018 746.353 296.868 746.38 296.719C747.284 305.317 744.489 313.204 745.618 320.313C747.029 329.199 750.374 338.507 753.076 347.107C754.19 350.651 755.707 354.469 756.169 358.151L756.417 359.142C756.665 360.108 757.003 360.948 757.384 361.865C757.834 362.944 758.149 363.733 757.742 364.912C756.291 369.117 751.122 371.011 749.012 374.822C735.906 385.799 713.779 388.706 697.349 387.2C695.327 387.015 693.369 386.766 691.391 386.3C685.393 385.436 679.951 382.942 674.875 379.72C672.971 378.512 671.011 376.672 668.828 376.071C670.54 380.899 672.805 385.49 674.989 390.117C673.345 388.529 671.787 386.854 670.323 385.099C656.207 368.344 656.314 345.626 659.274 325.166C660.214 318.663 661.261 312.107 663.061 305.781C666.016 295.397 669.913 291.267 670.956 279.384Z"/><path fill="#EFC650" d="M699.019 296.121C700.489 295.615 701.711 295.622 703.257 295.601C715.455 295.437 719.711 297.133 728.74 305.414C730.149 306.706 731.271 308.054 733.179 308.565C738.423 323.127 734.593 342.396 728.103 356.085C722.53 367.839 713.495 379.183 700.888 383.665C697.792 384.766 694.388 385.146 691.391 386.3C685.393 385.436 679.951 382.942 674.875 379.72C672.971 378.512 671.011 376.672 668.828 376.071C666.317 371.375 665.768 366.579 665.313 361.351C669.843 365.931 675.381 370.06 682.079 370.36C687.983 370.625 693.378 367.711 697.56 363.745C706.606 355.169 711.195 341.697 711.505 329.445C711.85 317.133 707.369 305.174 699.019 296.121Z"/><path fill="#A87F37" d="M683.17 286.288C691.125 282.105 700.398 281.187 709.018 283.731C718.332 286.53 725.816 293.417 730.29 301.937C731.414 304.078 732.303 306.314 733.179 308.565C731.271 308.054 730.149 306.706 728.74 305.414C719.711 297.133 715.455 295.437 703.257 295.601C701.711 295.622 700.489 295.615 699.019 296.121C693.91 292.284 689.172 288.654 683.17 286.288Z"/><path fill="#252014" d="M742.532 311.664C742.692 309.84 742.917 308.028 743.143 306.212C743.257 306.315 743.401 306.392 743.484 306.521C744.209 307.636 744.648 308.719 745.479 309.832C746.472 305.644 745.607 301.389 746.299 297.167C746.324 297.018 746.353 296.868 746.38 296.719C747.284 305.317 744.489 313.204 745.618 320.313C747.029 329.199 750.374 338.507 753.076 347.107C754.19 350.651 755.707 354.469 756.169 358.151C755.045 355.288 753.845 355.449 752.901 353.067C747.582 339.641 744.966 325.823 742.532 311.664Z"/><path fill="#FCF5E2" d="M690.821 306.108C691.729 306.202 692.655 306.274 693.533 306.541C695.302 307.082 696.755 308.353 697.527 310.033C698.643 312.472 698.383 315.19 697.387 317.616C696.083 320.793 694.203 322.095 691.1 323.302C689.652 323.2 687.978 323.124 686.689 322.392C684.849 321.347 683.511 319.355 683.024 317.317C682.424 314.773 682.89 312.093 684.317 309.902C685.973 307.321 687.939 306.693 690.821 306.108Z"/><path fill="#CBC0AD" d="M537.586 389.647C547.506 384.364 554.618 375.735 563.935 369.788C564.052 373.103 564.13 376.262 563.028 379.444L562.258 378.6C561.687 379.169 561.491 379.527 561.11 380.253C558.364 385.486 544.458 391.541 538.924 394.746C538.511 393.1 538.224 391.207 537.586 389.647Z"/><defs><linearGradient id="gradient_1" gradientUnits="userSpaceOnUse" x1="643.1756" y1="438.53961" x2="643.92175" y2="406.98633"><stop offset="0" stop-color="#EA726B"/><stop offset="1" stop-color="#F69B90"/></linearGradient></defs><path fill="url(#gradient_1)" d="M630.267 430.806C622.303 427.65 613.551 423.676 609.95 415.261C608.96 412.946 608.277 410.222 609.149 407.789C613.188 402.989 622.582 402.078 628.504 401.586C640.205 400.613 668.235 401.568 676.875 408.771C678.312 409.969 679.241 411.404 679.4 413.292C679.779 417.763 678.401 422.001 675.361 425.303C671.131 429.896 661.515 432.723 659.369 435.36C658.844 436.005 658.626 437.179 658.428 437.956C657.558 436.478 656.391 436.294 654.887 435.703C654.275 436.517 653.764 437.163 652.938 437.782C650.558 439.565 646.103 440.06 643.238 439.713C639.459 439.255 637.923 438.223 635.588 435.289L633.623 436.051C632.97 433.654 632.498 432.087 630.267 430.806Z"/><path fill="#16150F" d="M630.267 430.806C622.303 427.65 613.551 423.676 609.95 415.261C608.96 412.946 608.277 410.222 609.149 407.789C613.188 402.989 622.582 402.078 628.504 401.586C640.205 400.613 668.235 401.568 676.875 408.771C678.312 409.969 679.241 411.404 679.4 413.292C679.779 417.763 678.401 422.001 675.361 425.303C671.131 429.896 661.515 432.723 659.369 435.36C658.844 436.005 658.626 437.179 658.428 437.956C657.558 436.478 656.391 436.294 654.887 435.703C656.324 432.649 657.018 429.476 658.252 426.367C658.977 424.538 660.134 422.767 662.06 422.052C664.768 421.046 667.037 422.289 669.462 423.423C671.663 421.358 673.737 418.952 674.12 415.834C674.31 414.291 673.874 412.569 672.758 411.438C669.575 408.212 650.524 406.89 645.585 406.579C638.82 406.154 619.905 405.016 615.479 409.754C614.417 410.891 614.04 412.397 614.27 413.904C615.045 418.983 620.977 423.413 624.79 426.332C624.779 426.185 624.779 426.037 624.756 425.891C624.616 425.034 624.181 424.393 623.759 423.653C624.231 422.592 625.014 422.175 626.061 421.726C628.865 420.525 632.806 421.245 635.45 422.515C637.527 423.512 639.19 425.061 639.848 427.326C640.53 429.671 639.689 431.88 638.847 434.055C637.605 435.113 637.161 435.062 635.588 435.289L633.623 436.051C632.97 433.654 632.498 432.087 630.267 430.806Z"/><path fill="#0A0703" d="M633.623 436.051L635.588 435.289C637.923 438.223 639.459 439.255 643.238 439.713C646.103 440.06 650.558 439.565 652.938 437.782C653.764 437.163 654.275 436.517 654.887 435.703C656.391 436.294 657.558 436.478 658.428 437.956C656.455 443.661 654.189 447.471 648.791 450.541C647.419 458.378 645.531 465.86 643.155 473.443C644.304 474.672 645.476 475.804 646.833 476.804C653.668 481.846 663.396 484.38 671.809 483.058C688.071 480.502 699.756 466.126 708.71 453.549C707.61 458.271 706.08 462.271 703.54 466.403C696.824 477.331 684.727 488.221 671.974 491.213C659.39 494.164 648.74 487.668 638.454 481.394C631.165 484.412 624.521 488.706 617.546 492.363C601.534 500.758 582.997 505.383 565.151 500.621C556.948 498.432 544.445 492.55 540.262 484.749C539.272 482.901 539.096 481.417 539.659 479.382C539.855 479.295 540.034 479.103 540.249 479.12C540.276 479.122 541.302 480.381 541.355 480.442C542.778 482.086 544.171 483.495 546.005 484.685C552.43 488.853 559.18 491.79 566.706 493.263C588.752 497.576 608.85 491.047 627.009 478.523C637.268 471.447 639.4 461.639 641.599 450.162C636.682 446.073 635.39 441.975 633.623 436.051Z"/><path fill="#0A0703" d="M512.303 453.213C517.068 452.687 524.435 452.41 529.128 453.784C530.36 454.145 530.871 454.459 531.514 455.549L531.166 456.442C524.154 456.565 516.987 456.454 510.005 457.081C504.846 457.544 499.721 458.748 494.607 459.568C470.431 463.449 447.231 469.336 423.933 476.917C418.722 478.854 413.435 480.581 408.085 482.095C427.422 468.363 464.735 460.986 488.197 456.354L488.818 454.811C496.488 453.635 504.53 453.975 512.303 453.213Z"/><path fill="#0A0703" d="M438.301 419.716C448.645 419.092 458.98 420.228 469.268 421.124C473.8 421.518 478.39 421.606 482.895 422.25C493.213 423.728 525.151 431.729 532.181 437.586C522.139 434.046 511.479 431.989 501.061 429.863C478.79 425.101 457.059 422.515 434.26 423.467C423.304 423.924 412.404 425.296 401.443 425.646C413.291 421.572 425.867 420.41 438.301 419.716Z"/><path fill="#0A0703" d="M531.802 471.563L532.756 471.501C533.866 472.12 533.951 472.344 534.575 473.47C534.462 473.836 534.48 474.272 534.237 474.568C533.125 475.927 522.969 479.055 520.738 479.956C509.691 484.416 498.079 488.393 487.479 493.815C475.981 499.696 465.538 507.528 455.261 515.291L454.217 516.125L453.657 516.057C453.935 515.41 454.186 514.861 454.571 514.269C466.306 496.191 510.528 476.498 531.802 471.563Z"/><path fill="#EC9F89" d="M335.803 62.807C336.074 62.0481 336.388 61.3053 336.744 60.5824C339.49 54.8885 345.619 48.7714 351.688 46.7968C354.592 45.8519 357.55 46.0605 360.255 47.5C364.656 49.8417 370.003 56.6951 371.417 61.5329C394.273 94.3332 413.252 128.939 425.246 167.278C428.136 176.517 431.093 185.743 431.721 195.459C422.453 183.918 411.04 172.323 398.219 164.597C396.095 163.317 393.727 163.137 391.524 161.801C398.322 178.633 410.773 188.991 423.409 201.145C412.703 198.392 400.023 197.547 390.052 192.867C382.695 190.576 375.848 186.811 369.128 183.109C374.818 198.887 389.443 209.253 403.755 216.747C391.968 218.267 380.158 216.522 368.366 218.398C374.837 222.052 380.693 223.661 387.882 225.202C369.921 237.21 355.504 253.432 337.939 265.866C339.517 259.963 340.848 253.902 340.337 247.751C339.2 234.047 328.731 223.788 322.15 212.451C318.337 205.866 315.576 198.725 313.966 191.287C307.534 162.231 314.646 111.029 325.312 83.1276C328.082 75.8802 331.611 69.3141 335.803 62.807Z"/><path fill="#B77863" d="M335.803 62.807C336.074 62.0481 336.388 61.3053 336.744 60.5824C339.49 54.8885 345.619 48.7714 351.688 46.7968C354.592 45.8519 357.55 46.0605 360.255 47.5C364.656 49.8417 370.003 56.6951 371.417 61.5329C394.273 94.3332 413.252 128.939 425.246 167.278C428.136 176.517 431.093 185.743 431.721 195.459C422.453 183.918 411.04 172.323 398.219 164.597C396.095 163.317 393.727 163.137 391.524 161.801C398.322 178.633 410.773 188.991 423.409 201.145C412.703 198.392 400.023 197.547 390.052 192.867C389.762 188.89 381.457 171.656 379.329 166.255C376.742 159.688 374.526 152.949 371.97 146.356C366.71 132.791 361.157 119.341 356.132 105.685C354.256 100.586 352.325 95.4544 350.949 90.1938C349.084 83.0633 348.008 75.3417 344.901 68.6383L341.271 66.2161C340.54 64.3756 339.746 62.6074 338.855 60.8386C337.826 61.7117 337.068 62.2796 335.803 62.807Z"/><path fill="#755340" d="M335.803 62.807C336.074 62.0481 336.388 61.3053 336.744 60.5824C339.49 54.8885 345.619 48.7714 351.688 46.7968C354.592 45.8519 357.55 46.0605 360.255 47.5C364.656 49.8417 370.003 56.6951 371.417 61.5329C367.787 58.662 365.499 53.654 361.311 51.6772C357.694 49.9704 353.345 50.4834 349.716 51.8635C345.768 53.3646 340.682 56.8401 338.855 60.8386C337.826 61.7117 337.068 62.2796 335.803 62.807Z"/><path fill="#C03F32" d="M371.469 573.895C371.466 573.689 371.461 573.483 371.461 573.277C371.478 564.832 380.074 539.955 385.867 534.156C439.265 559.368 484.074 569.376 542.901 572.72C554.556 573.383 568.42 575.209 579.774 572.456C584.599 583.752 584.103 594.391 579.519 605.702C578.884 607.269 578.222 608.864 577.395 610.338C566.499 614.243 554.317 614.543 542.839 614.88C487.356 616.51 431.378 602.245 381.403 578.641L371.469 573.895Z"/><path fill="#0A0703" d="M502.184 286.235C508.331 284.461 516.636 287.294 522.052 290.254C537.947 298.941 548.152 313.374 553.491 330.317C556.272 337.924 560.183 350.891 556.878 358.829C552.743 368.763 540.461 378.775 530.596 382.702C516.567 388.286 500.181 387.746 486.414 381.665C470.208 374.507 456.184 359.887 449.925 343.293C446.332 333.763 446.423 324.883 450.636 315.577C453.344 307.789 459.126 299.911 465.595 294.83C475.241 287.256 485.832 285.532 497.764 286.993C499.55 287.427 500.53 286.933 502.184 286.235Z"/><path fill="#EFC650" d="M450.636 315.577C453.344 307.789 459.126 299.911 465.595 294.83C475.241 287.256 485.832 285.532 497.764 286.993C489.074 289.022 484.086 294.133 477.915 300.074C470.818 311.139 467.295 322.992 470.205 336.077C472.761 347.568 479.279 360.001 489.602 366.288C494.828 369.471 500.853 370.361 506.797 368.903C516.32 366.569 523.627 358.946 528.382 350.702C534.592 339.935 536.699 327.316 533.375 315.261C532.691 312.781 531.677 310.419 530.671 308.056C533.243 307.994 535.671 310.37 537.455 312.075C541.464 315.904 550.202 328.41 553.491 330.317C556.272 337.924 560.183 350.891 556.878 358.829C552.743 368.763 540.461 378.775 530.596 382.702C516.567 388.286 500.181 387.746 486.414 381.665C470.208 374.507 456.184 359.887 449.925 343.293C446.332 333.763 446.423 324.883 450.636 315.577Z"/><path fill="#A87F37" d="M450.636 315.577C453.344 307.789 459.126 299.911 465.595 294.83C475.241 287.256 485.832 285.532 497.764 286.993C489.074 289.022 484.086 294.133 477.915 300.074C466.523 300.483 457.019 313.883 450.636 315.577Z"/><path fill="#A87F37" d="M502.184 286.235C508.331 284.461 516.636 287.294 522.052 290.254C537.947 298.941 548.152 313.374 553.491 330.317C550.202 328.41 541.464 315.904 537.455 312.075C535.671 310.37 533.243 307.994 530.671 308.056C529.823 307.212 529.209 305.774 528.518 304.753C520.978 293.614 515.673 288.734 502.184 286.235Z"/><path fill="#FCF5E2" d="M510.961 303.6C512.415 303.604 513.907 303.584 515.324 303.954C517.656 304.562 519.606 306.229 520.788 308.309C521.937 310.332 522.288 312.546 521.595 314.787C520.739 317.557 519.083 318.824 516.562 320.031C514.703 320.087 512.731 320.118 511.042 319.241C508.728 318.038 506.852 315.487 506.078 313.031C505.418 310.94 505.492 308.642 506.594 306.708C507.666 304.825 508.991 304.217 510.961 303.6Z"/><path fill="#B77863" d="M737.161 53.9381C738.879 52.2458 740.685 50.0243 743.198 49.8536C744.19 50.6323 744.337 51.2597 744.688 52.4455L746.773 56.4574C748.21 61.4344 748.264 66.6298 747.606 71.7468C745.693 86.6141 740.628 103.061 737.56 118.017C733.122 140.49 729.242 163.07 725.922 185.736C723.859 199.641 721.567 213.742 720.443 227.757C710.267 222.001 701.727 215.265 694.657 205.855C697.051 204.632 699.557 202.926 700.868 200.522L700.564 199.657C698.019 198.755 694.785 200.335 692.341 201.181C690.837 200.733 689.367 200.285 687.825 199.988C686.432 199.72 684.415 198.891 683.644 197.631C683.162 196.844 682.981 196.165 682.81 195.274L683.688 194.418C683.726 193.66 683.669 192.665 684.034 191.977C685.945 188.383 699.424 178.381 703.352 176.468C704.48 174.181 705.646 171.907 706.708 169.589C702.66 171.911 682.568 185.258 679.682 184.912L679.87 185.092C679.905 184.847 679.934 184.602 679.976 184.358C680.131 183.47 680.392 182.942 680.731 182.135C680.767 182.048 680.784 181.955 680.811 181.865L680.691 180.853L680.233 180.821L677.91 186.513C677.226 186.987 676.747 187.455 676.23 188.098L675.651 188.826C675.771 187.851 675.613 188.169 676.04 187.494C677.756 184.777 677.225 181.271 677.907 178.135C679.453 171.026 681.501 163.905 683.508 156.909C692.393 125.924 706.978 96.9596 724.949 70.3058C728.701 64.7408 732.335 58.626 737.161 53.9381Z"/><defs><linearGradient id="gradient_2" gradientUnits="userSpaceOnUse" x1="723.84955" y1="132.1678" x2="693.38513" y2="106.17931"><stop offset="0" stop-color="#2D2113"/><stop offset="1" stop-color="#403B2C"/></linearGradient></defs><path fill="url(#gradient_2)" d="M737.161 53.9381C738.879 52.2458 740.685 50.0243 743.198 49.8536C744.19 50.6323 744.337 51.2597 744.688 52.4455C741.358 55.3525 738.688 59.0539 735.772 62.3705C732.478 66.1162 728.988 69.7551 725.978 73.7331C709.859 95.0328 697.378 122.492 689.636 147.957C687.522 154.932 685.58 161.957 683.812 169.027C682.809 173.209 682.222 177.845 680.811 181.865L680.691 180.853L680.233 180.821L677.91 186.513C677.226 186.987 676.747 187.455 676.23 188.098L675.651 188.826C675.771 187.851 675.613 188.169 676.04 187.494C677.756 184.777 677.225 181.271 677.907 178.135C679.453 171.026 681.501 163.905 683.508 156.909C692.393 125.924 706.978 96.9596 724.949 70.3058C728.701 64.7408 732.335 58.626 737.161 53.9381Z"/><path fill="#252014" d="M683.688 194.418C683.726 193.66 683.669 192.665 684.034 191.977C685.945 188.383 699.424 178.381 703.352 176.468C698.157 184.724 691.743 189.142 683.688 194.418Z"/><path fill="#8E2A20" d="M331.397 494.736C349.059 511.998 364.482 522.217 385.867 534.156C380.074 539.955 371.478 564.832 371.461 573.277C371.461 573.483 371.466 573.689 371.469 573.895C356.532 566.29 331.026 553.937 323.859 538.337C318.591 526.869 327.353 506.15 331.397 494.736Z"/><defs><linearGradient id="gradient_3" gradientUnits="userSpaceOnUse" x1="598.87" y1="680.11469" x2="600.66223" y2="627.4375"><stop offset="0" stop-color="#DCA12A"/><stop offset="1" stop-color="#EDC352"/></linearGradient></defs><path fill="url(#gradient_3)" d="M583.766 629.751C593.154 626.703 602.468 624.803 611.768 629.344C618.004 632.39 622.649 638.171 624.848 644.695C627.396 652.507 626.775 661.006 623.118 668.364C620.584 673.354 615.686 678.762 610.216 680.451C609.133 680.786 608.353 681.009 607.261 680.563C607.573 679.52 607.752 679.578 608.571 678.939C609.944 676.636 611.427 674.235 612.31 671.695C613.323 668.778 613.111 666.887 611.698 664.21C609.294 664.837 606.83 665.57 604.376 665.953C601.122 666.462 594.725 665.325 592.508 668.067C592.086 670.036 592.625 671.267 593.685 672.875C594.278 673.775 594.932 674.615 595.619 675.445C597.044 676.586 598.664 677.967 599.794 679.408C600.598 680.433 600.564 681.2 600.411 682.418C599.824 683.134 599.465 683.506 598.574 683.844C594.85 685.257 587.854 683.456 584.224 681.99C577.169 679.216 571.576 673.646 568.774 666.602C565.586 658.616 566.101 649.514 569.684 641.751C572.635 635.356 577.341 632.054 583.766 629.751Z"/><path fill="#A87F37" d="M595.619 675.445C597.044 676.586 598.664 677.967 599.794 679.408C600.598 680.433 600.564 681.2 600.411 682.418C599.824 683.134 599.465 683.506 598.574 683.844C594.85 685.257 587.854 683.456 584.224 681.99C577.169 679.216 571.576 673.646 568.774 666.602C565.586 658.616 566.101 649.514 569.684 641.751C572.635 635.356 577.341 632.054 583.766 629.751C583.634 629.988 583.505 630.227 583.368 630.461C582.135 632.567 580.146 634.16 578.825 636.23C574.426 643.123 572.855 653.407 574.68 661.328C576.18 667.84 579.99 673.732 585.701 677.314C590.115 680.083 595.038 681.012 600.061 682.038C597.893 679.99 595.877 678.63 595.619 675.445Z"/><path fill="#A87F37" d="M611.698 664.21C613.487 664.491 613.852 664.449 615.244 665.707C616.123 667.9 615.802 669.599 614.824 671.733C613.517 674.584 611.501 677.652 608.571 678.939C609.944 676.636 611.427 674.235 612.31 671.695C613.323 668.778 613.111 666.887 611.698 664.21Z"/><path fill="#C03F32" d="M668.28 539.596C668.379 539.893 668.482 540.189 668.577 540.487C671.26 548.884 672.719 562.968 668.32 570.962C658.834 588.203 625.265 600.353 607.251 605.887C609.15 593.288 610.543 580.958 605.399 568.94C627.275 561.767 649.842 553.727 668.28 539.596Z"/><path fill="#EFC650" d="M584.82 569.812C589.083 568.954 593.575 568.102 597.51 570.561C600.839 572.642 602.305 576.35 603.041 580.042C604.369 586.696 603.823 593.935 602.416 600.529C601.902 602.95 601.444 605.478 600.529 607.783C599.667 609.954 598.225 612.094 595.96 612.956C591.912 614.496 587.692 611.966 584.135 610.279C585.605 606.178 586.963 601.941 587.78 597.659C588.875 587.307 588.018 579.702 584.82 569.812Z"/><path fill="#A87F37" d="M587.78 597.659L588.148 598.869C591.973 600.574 598.247 600.519 602.416 600.529C601.902 602.95 601.444 605.478 600.529 607.783C599.667 609.954 598.225 612.094 595.96 612.956C591.912 614.496 587.692 611.966 584.135 610.279C585.605 606.178 586.963 601.941 587.78 597.659Z"/><path fill="#0A0703" d="M286.687 844.826C290.937 848.845 294.185 855.952 297.131 861.043C301.687 868.915 306.172 877.046 311.406 884.491C317.007 892.457 334.255 909.958 337.209 916.869C336.909 916.817 336.383 916.751 336.072 916.623C333.615 915.613 330.462 911.789 328.523 909.881C311.363 892.998 294.205 867.818 286.687 844.826Z"/><path fill="#CBC0AD" d="M305.626 194.885C305.803 195.118 306.009 195.331 306.156 195.584C307.392 197.706 307.972 201.712 308.658 204.14C313.446 221.084 315.926 238.195 311.846 255.601L311.116 257.283L310.685 256.863C309.05 242.904 307.783 228.904 306.886 214.879C306.407 208.242 305.685 201.532 305.626 194.885Z"/><path fill="#403D2A" d="M556.376 163.181C577.205 162.599 616.259 168.347 635.435 176.209C634.86 176.525 634.449 176.733 633.762 176.796C630.364 177.107 609.281 171.267 604.51 170.206C596.737 168.478 559.673 165.945 556.376 163.181Z"/><path fill="#403D2A" d="M382.38 64.1915C390.903 73.5387 416.032 122.245 419.066 134.349L418.524 133.506L418.534 134.281L418.336 135.698C412.42 120.836 403.346 103.195 395.421 89.1609C392.501 83.9908 389.592 78.7948 386.549 73.6967C384.849 70.8485 382.321 68.0181 381.318 64.8572L382.38 64.1915Z"/><path fill="#403D2A" d="M317.362 274.961C317.479 275.151 317.706 275.309 317.713 275.532C317.742 276.406 308.785 299.273 307.895 304.942C305.592 319.608 302.681 335.466 304.999 350.289C305.544 353.773 307.337 358.78 306.577 362.161C304.927 359.852 304.172 355.228 303.626 352.41C299.565 331.475 304.14 307.256 311.591 287.523C313.198 283.266 314.817 278.745 317.362 274.961Z"/><path fill="#403D2A" d="M376.1 53.0367C389.558 62.637 411.863 85.6055 420.126 99.8359C416.173 96.5575 412.877 92.4863 409.404 88.7143C402.992 81.7506 396.651 74.6606 390.058 67.8683C386.472 64.1737 380.359 61.1867 377.508 57.1309C377.496 57.0923 377.49 57.0506 377.471 57.015C376.648 55.5039 376.125 54.8086 376.1 53.0367Z"/><path fill="#A87F37" d="M598.74 616.183C599.97 615.297 601.175 614.192 602.499 613.453C603.94 612.649 605.042 613.275 606.458 613.736C606.735 615.184 606.889 616.127 606.461 617.59C605.47 618.526 604.954 618.801 603.558 618.825C602.25 618.847 600.81 618.564 599.511 618.395C588.723 618.243 585.177 621.975 576.881 622.774C575.233 621.851 574.469 620.364 573.464 618.812C576.724 617.698 579.802 616.295 582.926 614.849C588.191 617.23 593.154 616.645 598.74 616.183Z"/><path fill="#EFC650" d="M606.458 613.736C606.735 615.184 606.889 616.127 606.461 617.59C605.47 618.526 604.954 618.801 603.558 618.825C602.25 618.847 600.81 618.564 599.511 618.395C599.575 618.147 599.631 617.892 599.76 617.665C600.85 615.739 604.45 614.561 606.458 613.736Z"/><path fill="#252014" d="M737.417 44.9183C738.899 44.5557 739.633 44.3311 741.032 45.2216C744.489 47.4227 748.582 50.3993 749.602 54.5562L749.34 55.6738C748.478 56.1157 747.722 56.2814 746.773 56.4574L744.688 52.4455C744.337 51.2597 744.19 50.6323 743.198 49.8536C740.685 50.0243 738.879 52.2458 737.161 53.9381C737.726 52.314 738.55 51.0088 738.888 49.2786L738.322 48.814L736.475 49.2992L735.334 48.2568L735.348 47.3943C736.065 46.7877 736.597 46.3253 737.092 45.5102C737.209 45.318 737.308 45.1156 737.417 44.9183Z"/><path fill="#252014" d="M368.693 48.0661C371.172 49.5929 373.992 51.0196 376.1 53.0367C376.125 54.8086 376.648 55.5039 377.471 57.015C377.49 57.0506 377.496 57.0923 377.508 57.1309C377.472 57.1364 377.433 57.1323 377.4 57.1472C377.096 57.2834 376.801 57.4375 376.501 57.5826C373.519 56.0404 370.602 50.7888 368.693 48.0661Z"/></svg>