<?xml version="1.0" encoding="utf-8" ?><svg xmlns="http://www.w3.org/2000/svg" xmlns:xlink="http://www.w3.org/1999/xlink" width="1024" height="1024" viewBox="0 0 1024 1024"><path d="M928.676 163.783C936.981 163.15 941.634 161.167 946.473 168.945C947.258 188.142 946.159 212.162 946.103 231.878L945.575 375.492L944.606 569.459C944.438 597.72 944.821 625.999 944.471 654.258C944.409 659.268 940.445 661.527 935.869 661.641C919.138 662.056 902.425 661.065 885.721 660.761L781.899 659.039L610.039 656.237C570.329 655.642 530.634 655.472 490.932 654.423C483.626 654.23 483.61 651.4 483.425 645.163C459.56 659.182 442.539 670.195 413.992 666.333C414.509 673.836 415.489 681.445 416.159 688.966C419.178 722.854 418.462 756.739 411.504 790.12C409.644 799.046 407.283 807.864 406.242 816.929C402.522 846.655 399.33 876.467 395.582 906.192C393.777 920.532 392.508 935.193 390.324 949.457C398.894 953.876 408.773 953.556 417.598 958.781C428.088 964.992 435.057 976.81 428.172 988.595C424.976 994.065 417.105 997.622 410.826 998.953C389.826 1003.41 364.861 1000.86 345.911 990.436C340.734 987.147 336.41 982.604 334.611 976.591C332.453 969.377 333.048 961.482 332.084 953.969L323.846 884.847C322.803 876.527 321.312 861.687 319.581 853.964C315.919 853.628 300.547 855.078 294.841 855.08C291.27 873.249 288.289 891.75 285.04 909.984L276.618 955.346C283.129 958.073 289.926 960.105 295.847 964.017C306.012 970.732 312.914 985.684 305.188 996.655C301.215 1002.3 293.634 1006.08 286.771 1007.06C267.576 1009.8 244.335 1008.47 227.596 997.863C223.676 995.088 218.964 989.444 218.272 984.476C216.256 969.992 217.152 954.032 215.969 939.435C214.587 922.363 213.253 905.831 211.159 888.903C209.814 878.026 208.943 867.063 207.279 856.334C203.397 867.624 198.078 880.017 190.447 889.048C168.518 914.974 124.161 917.037 98.7997 895.064C87.9426 885.657 78.7643 868.966 77.6925 854.592C72.2636 826.413 83.4935 783.632 106.956 765.502C115.109 759.637 126.64 760.661 131.557 770.22C140.225 787.393 127.779 805.398 123.031 821.671C120.005 832.408 119.94 844.891 125.067 854.809C130.579 865.471 145.78 866.915 154.593 860.53C167.808 850.956 179.051 822.736 182.205 807.451C169.342 795.479 168.222 783.344 169.189 766.247C169.393 762.637 170.526 755.1 170.17 752.009C169.163 743.279 166.501 733.888 164.805 725.014C155.649 677.109 164.821 590.585 192.936 550.033C189.386 539.361 191.919 530.346 196.423 520.476C191.533 516.091 187.07 512.209 182.918 507.063C152.872 469.819 159.848 421.521 176.989 380.844C171.111 350.23 177.562 282.053 202.324 259.117C218.211 244.402 250.322 291.771 259.19 301.568C263.569 306.406 270.873 315.896 274.968 321.774C282.02 320.696 293.898 320.937 301.3 320.991C312.785 321.076 326.311 320.418 337.491 322.307C343.091 318.993 351.614 310.091 356.466 305.243L380.825 280.817C385.822 275.777 390.727 270.483 396.044 265.788C400.148 262.163 407.897 255.33 413.763 255.895C415.621 256.074 417.525 256.959 418.618 258.523C424.986 267.635 411.963 341.096 409.213 356.341C425.865 372.853 432.697 390.014 429.847 413.427C435.095 424.724 439.566 446.361 438.579 458.753C451.521 454.221 468.601 453.751 482.099 453.814C481.848 434.886 482.126 415.239 482.134 396.232L482.121 288.547L482.194 224.693C482.184 213.457 481.975 202.239 482.197 191.005C482.293 186.178 484.035 181.711 489.515 181.232C499.225 180.383 509.023 180.341 518.748 179.936L588.72 177.301L677.996 173.917C701.064 172.904 725.44 171.275 748.454 171.079L748.475 169.781C748.543 167.255 748.467 166.769 750.081 165.236C756.186 164.058 765.913 174.992 772.441 171.907C772.92 170.962 773.25 170.404 773.817 169.506C775.879 168.617 785.228 169.271 788.372 169.138L928.676 163.783ZM776.98 377.969C773.177 377.833 769.284 377.857 765.471 377.839C765.349 379.911 765.092 382.215 764.908 384.305C765 389.574 766.083 400.641 762.758 404.406L761.735 404.481C758.599 401.103 760.405 390.203 760.645 385.447C759.651 382.092 759.533 381.484 759.362 377.997L748.818 377.984C749.129 363.835 748.901 348.834 748.922 334.62L748.931 246.267C748.924 232.872 748.483 217.671 748.87 204.503C729.079 204.272 702.889 206.233 682.494 206.958L551.003 211.659L502.814 213.602C497.464 213.803 491.848 214.46 486.551 214.385L486.581 454.372C492.218 454.997 500.599 456.682 506.184 457.931C499.64 457.993 493.232 457.139 486.628 456.66C486.417 465.805 486.541 475.312 486.536 484.485C488.726 485.212 494.962 486.895 495.738 488.874L496.03 488.279L496.792 488.842L496.042 489.023L496.042 488.402L495.778 488.265L495.139 488.861C492.548 488.274 489.445 487.108 486.885 486.238C486.181 495.607 486.55 509.885 486.569 519.52L486.587 579.46C495.051 575.017 503.536 570.679 511.967 566.143C520.211 561.708 528.229 556.232 537.082 553.149C539.706 552.236 542.007 551.815 544.71 552.546C548.329 553.526 549.709 555.984 551.459 558.966C551.619 561.844 551.861 564.004 551.128 566.842C549.167 574.432 541.684 581.131 534.925 584.801C540.086 591.625 540.825 596.244 536.351 603.515C539.351 618.471 528.491 622.742 515.857 623.748C510.057 629.874 505.072 633.752 497.671 637.801C493.838 639.899 488.44 642.548 486.901 646.771C486.987 647.436 486.899 648.055 487.393 648.531C489.101 650.217 492.202 650.426 494.505 650.502C510.335 651.022 526.189 650.847 542.027 651.117L659.478 652.843L847.607 655.86C873.259 656.153 898.904 656.743 924.564 656.604C927.795 656.587 937.796 657.043 939.991 655.13C941.129 640.105 940.289 616.561 940.34 600.826L941.003 502.21L942.274 196.048C934.188 196.895 924.44 197.075 916.25 197.423L873.431 199.129L776.859 203.101C776.316 260.681 776.677 320.351 776.98 377.969ZM482.144 581.941C482.171 562.815 481.408 536.713 482.385 518.183C478.738 516.752 475.588 514.358 472.208 512.433C461.304 506.225 449.575 502.059 437.524 498.706C435.069 498.024 432.05 497.227 429.704 496.256C417.572 515.19 405.587 529.52 385.906 540.913C387.256 548.37 387.91 553.209 385.733 560.644C388.516 562.988 390.939 565.244 393.311 568.019C405.108 581.819 419.085 592.557 437.595 594.998C453.833 595.002 467.994 589.161 482.144 581.941ZM431.311 493.007C450.233 498.338 464.288 503.662 480.188 515.981L481.62 516.794C482.464 515.777 482.236 488.058 482.076 484.696C475.275 483.855 468.949 482.375 462.009 481.699C453.077 480.828 444.818 481.131 435.888 480.962C434.437 485.219 433.243 488.923 431.311 493.007ZM451.125 477.36C459.218 477.527 474.797 480.115 482.022 482.928C482.154 474.144 482.111 465.342 482.103 456.555C478.604 456.567 474.515 456.484 471.08 456.717C457.815 458.004 451.03 459.38 438.142 462.779C437.777 466.968 437.362 473.468 436.053 477.273C441.023 477.286 446.171 477.227 451.125 477.36Z"/><path fill="#D53328" d="M728.475 240.721L730.506 241.515C731.492 242.735 731.519 242.748 731.531 244.698C731.607 256.384 731.536 268.356 731.533 280.026L731.52 353.602C734.101 353.526 737.235 353.19 739.548 354.108C741.102 356.388 740.634 375.241 738.592 377.538C736.223 378.421 734.247 378.263 731.704 378.321C731.69 382.882 732.409 389.347 730.043 392.843C729.559 392.675 728.747 392.255 728.256 392.02C726.344 389.356 726.784 382.107 726.504 378.121C724.362 378.344 720.415 378.1 718.131 378.026L718.112 377.521C717.997 373.66 717.038 356.216 719.13 354.022C721.605 353.245 724.396 353.516 727.048 353.562C726.539 330.965 726.965 306.565 726.956 283.868L726.951 258.232C726.951 253.917 726.147 244.043 728.475 240.721Z"/><path fill="#3F9B3F" d="M554.834 405.664C556.193 405.842 555.986 405.829 557.299 406.278C559.506 408.681 558.586 415.337 558.518 418.971C560.552 418.999 565.589 418.977 565.605 421.699C565.643 428.172 567.061 466.981 564.923 470.233C563.263 471.24 560.996 470.964 558.968 470.965C556.834 472.428 559.138 475.256 556.426 479.115C555.048 478.721 555.501 478.868 554.268 477.992C553.031 475.829 553.922 474.864 553.649 472.386C553.359 469.758 550.217 471.982 547.019 469.813C545.136 466.999 546.317 426.627 546.531 421.031C546.885 420.648 547.239 420.264 547.593 419.881C549.756 418.954 551.45 419.228 553.83 419.286C553.753 415.344 553.317 409.207 554.834 405.664Z"/><path fill="#3F9B3F" d="M628.333 295.177C629.686 295.476 629.664 295.513 630.888 296.2C632.932 299.222 631.903 305.467 631.746 309.491C634.131 309.214 636.264 308.682 638.214 310.073C639.446 312.926 639.634 355.657 637.852 357.603C635.768 358.622 634.134 358.444 631.792 358.509C631.596 362.504 632.102 368.067 630.435 371.523L628.513 370.965C626.512 368.728 627.242 361.968 627.247 358.543C624.724 358.569 622.073 358.475 619.539 358.427C619.187 352.087 618.516 312.78 620.968 309.902C622.999 308.937 624.716 309.282 627.017 309.396C626.956 304.894 626.395 299.053 628.333 295.177Z"/><path fill="#D53328" d="M701.304 301.102C707.061 301.705 705.519 311.7 705.47 316.282C708.235 316.958 711.633 317.088 714.518 317.315C714.521 322.352 715.208 354.195 713.542 356.769C711.019 358.599 709.038 358.29 705.91 358.153C705.976 362.119 706.328 367.247 705.019 370.921C703.66 370.967 703.737 370.987 702.45 370.559C700.1 367.799 701.099 362.092 701.329 358.354C699.408 358.325 694.597 358.296 694.139 357.31C692.034 352.775 692.42 319.407 694.109 317.062C696.294 316.203 698.469 316.488 700.869 316.537C700.428 310.66 700.486 306.942 701.304 301.102Z"/><path fill="#D53328" d="M678.029 263.131C679.444 263.501 679.34 263.483 680.375 264.533C681.808 268.164 680.606 275.081 680.463 279.6C682.993 279.488 686.09 279.069 688.233 280.315C690.108 285.253 689.111 311.856 688.045 318.01C687.812 319.352 681.645 319.303 680.419 319.326C680.427 323.04 681.34 327.996 680.522 331.495C680.183 332.943 678.976 333.1 677.692 333.597C674.188 329.072 677.224 324.97 675.303 319.652C673.396 319.293 668.202 319.849 668.03 317.354C667.558 310.525 665.924 286.93 667.986 281.25C670.196 279.207 673.04 279.582 676.019 279.559C676.044 274.936 675.77 266.95 678.029 263.131Z"/><path fill="#3F9B3F" d="M604.967 343.658C605.92 343.845 606.319 344.006 607.242 344.312C609.989 347.854 607.09 349.789 607.94 355.009C609.371 356.531 611.375 355.047 614.229 356.851C616.312 360.09 615.469 391.832 615.368 397.904L607.712 398.023C607.923 401.665 608.068 413.389 607.131 416.74C605.058 416.852 605.945 417.13 604.332 416.031C602.712 412.981 603.272 402.405 603.237 398.182C600.949 398.134 598.504 398.28 596.606 397.154C594.228 389.087 596.289 367.206 596.039 358.05C595.981 355.91 601.913 356.133 603.338 356.118C603.302 351.687 602.603 347.149 604.967 343.658Z"/><path fill="#3F9B3F" d="M579.378 380.275C580.927 380.313 581.182 380.159 582.42 381.077C584.241 384.188 583.446 391.869 583.455 396.057C586.017 396.156 586.999 396.063 589.424 396.904C590.381 397.88 590.713 398.05 590.82 399.585C591.668 411.733 590.991 424.849 591.15 436.99C588.209 437.578 585.854 437.861 582.85 437.673C582.448 442.51 582.503 449.805 582.371 454.8C581.363 455.395 581.487 455.296 580.363 455.677L579.338 455.106C577.453 451.623 578.628 442.816 578.309 438.075C575.572 436.616 574.403 439.144 571.72 435.833C570.943 428.351 571.528 406.932 571.668 398.454C571.969 398.072 572.27 397.69 572.571 397.308C574.532 396.267 576.553 396.584 578.856 396.62C578.493 392.22 577.818 384.341 579.378 380.275Z"/><path fill="#3F9B3F" d="M652.335 262.282C653.698 262.794 653.644 262.788 654.797 263.693C656.231 266.702 655.559 270.135 655.331 273.58C658.08 273.439 660.555 273.1 662.98 274.351C663.959 276.718 663.572 306.105 662.64 308.95C660.583 311.237 658.876 311.014 655.763 311.185C655.819 316.785 656.556 330.449 654.376 334.863C652.55 334.842 653.356 335.086 651.842 334.195C650.305 331.222 650.834 315.755 650.776 311.107C648.345 311.419 646.3 311.718 644.208 310.336C642.924 307.697 642.807 275.82 644.371 274.102C646.54 273.268 648.645 273.547 651.016 273.599C650.915 269.58 650.281 265.596 652.335 262.282Z"/><path fill="#3F9B3F" d="M507.346 481.153C512.655 483.218 511.099 489.702 511.035 494.719C513.375 495.172 515.663 495.376 517.599 496.664C518.55 498.497 518.39 507.886 518.355 510.494C518.243 518.878 518.709 527.463 517.797 535.792C517.464 536.169 517.131 536.547 516.797 536.924C514.759 537.826 513.201 537.602 510.96 537.582C511.024 541.069 511.353 545.691 510.351 548.914C508.922 549.05 509.218 549.013 507.763 548.818C505.534 546.439 506.434 540.942 506.504 537.279C497.612 537.846 499.559 533.667 499.575 525.961C499.592 517.003 499.942 508.08 499.673 499.114C499.542 494.75 503.539 495.211 506.775 494.975C506.497 490.667 505.748 485.111 507.346 481.153Z"/><path fill="#3F9B3F" d="M532.966 449.172C534.158 449.515 534.124 449.587 535.122 450.362C536.935 453.776 536.166 462.677 536.142 466.998C538.193 466.97 540.322 467.033 542.38 467.064L542.513 468.554C542.922 473.48 544.085 504.111 542.082 506.491C540.303 507.38 538.336 507.312 536.324 507.446C536.211 511.542 536.767 514.351 534.14 517.186C532.906 516.555 533.292 516.835 532.353 515.86C531.483 513.113 531.809 510.404 531.897 507.48L530.621 507.49C528.106 507.493 526.507 507.742 524.688 505.92C523.878 502.191 523.58 470.1 524.882 468.005C527.008 467.049 529.165 467.198 531.543 467.105C531.498 462.137 530.705 453.025 532.966 449.172Z"/><path fill="#FEFCED" d="M196.448 554.775C218.741 576.801 267.448 588.69 298.393 589.125C310.77 589.299 323.073 586.589 335.236 585.658C332.134 588.149 329.358 590.824 326.518 593.599C311.395 617.005 336.186 641.65 359.308 627.103C366.453 622.607 369.256 611.786 367.727 603.895C366.382 596.953 362.27 592.029 356.522 588.12C353.98 586.912 351.372 586.206 351.877 582.998C354.963 579.413 367.756 576.838 372.693 573.649C375.279 571.978 381.6 566.097 383.498 565.606L384.642 566.479C399.814 580.512 406.334 603.329 411.637 622.665C411.934 623.747 412.089 623.986 412.983 624.424C415.198 620.185 409.573 596.179 407.736 590.884C422.392 600.456 435.402 602.349 452.733 598.869C456.166 598.179 460.343 597.079 463.566 595.799C488.652 585.829 511.945 571.321 535.812 558.827C539.579 556.855 546.015 555.56 546.606 561.334C547.925 574.225 528.448 582.67 519.503 586.587C515.476 583.611 512.185 581.439 506.939 581.506L506.318 582.005C507.949 583.372 509.147 583.725 510.839 584.973C515.943 588.737 519.96 594.272 520.604 600.716C520.742 602.095 520.42 602.867 519.741 604.036C517.562 605.842 516.465 605.67 513.702 605.586C507.933 605.411 506.081 600.849 503.578 596.495C504.515 604.229 506.044 610.918 500.627 617.554L501.731 618.76C506.124 619.775 507.735 612.435 508.738 609.161C512.189 611.341 512.903 611.391 517.023 611.364C518.177 611.836 517.874 611.691 519.039 611.587C519.881 614.451 519.373 615.522 519.843 618.353L514.202 618.585C508.662 624.058 503.759 628.25 496.875 632.131C479.028 642.194 461.508 653.869 441.713 659.739C432.165 662.58 423.153 662.024 413.455 660.9C412.383 654.788 411.347 648.46 410.147 642.388C409.014 637.368 404.722 616.785 400.811 614.754L400.137 615.25C399.736 619.123 402.364 629.912 403.182 634.474C409.537 669.917 412.704 705.594 411.462 741.612C411.131 751.218 410.072 761.522 408.74 771.097C400.414 811.798 396.271 852.8 391.885 894.09C389.789 913.819 386.612 934.498 385.348 954.18C399.179 958.422 439.168 964.674 422.469 988.816C423.231 974.572 418.09 970.9 405.557 965.522C409.203 969.829 415.044 976.568 417.73 981.318C420.048 992.496 414.201 993.306 404.975 994.901L405.427 989.458C404.981 981.107 401.073 978.068 394.402 974.246C397.595 980.315 399.163 983.184 399.73 990.141C399.971 991.579 399.56 994.504 399.407 996.062C381.823 996.64 345.861 995.132 339.211 973.71C338.263 970.656 338.249 963.67 337.967 960.103C336.18 937.486 332.922 915.019 330.35 892.485C328.805 879.527 327.436 866.277 325.492 853.391C344.266 850.863 356.709 848.594 371.247 835.923C374.088 832.36 375.486 830.722 377.386 826.511C359.678 845.156 329.912 848.125 305.454 849.118C299.33 849.366 296.726 849.024 291.838 845.742C289.662 853.078 288.495 861.114 286.972 868.65C282.048 893.014 278.565 917.636 273.917 942.053C272.922 947.279 271.693 953.698 271.35 958.975C287.615 965.217 313.325 973.439 299.459 996.63C300.139 981.028 296.72 977.37 283.074 970.581C288.623 977.319 291.724 980.388 294.771 988.687C295.141 992.186 295.608 994.68 293.423 997.737C290.722 1001.52 282.857 1003.67 278.652 1002.02C278.204 1000.31 278.377 999.394 278.491 997.649C277.047 986.027 272.786 982.262 262.568 977.58C267.474 984.932 268.929 982.86 272.469 993.332C272.555 996.624 272.474 1000.11 272.448 1003.42C257.055 1003.56 224.714 1000.84 222.403 980.635C221.622 973.808 222.457 965.975 222.246 958.949C221.178 923.403 216.868 887.967 212.369 852.718C210.874 840.961 208.424 829.133 207.217 817.403C210.226 816.844 215.345 815.391 217.74 813.666C220.742 811.436 222.149 806.864 226.245 806.255C227.669 806.043 228.944 805.453 230.214 804.824C241.665 791.507 238.775 769.554 238.25 753.481C237.198 721.317 239.963 689.706 244.579 657.928C245.157 653.945 246.344 638.843 244.503 636.237L243.907 636.36C242.308 638.59 241.945 642.328 241.492 645.036C235.223 682.516 230.514 720.987 233.128 759.027C233.935 770.78 234.701 783.795 230.3 794.901C229.308 797.404 228.093 800.503 225.507 801.595C221.102 800.712 221.071 784.516 216.682 779.459L216.005 779.696C214.465 785.39 215.689 795.274 217.399 801.035L219.36 804.855C210.44 814.769 201.502 814.135 195.394 801.697C192.128 794.067 191.634 788.491 189.878 780.407L188.286 787.979C189.018 797.324 187.439 797.891 191.164 807.772C164.047 787.508 179.296 766.944 173.934 738.913C172.596 731.168 170.56 724.302 169.381 716.116C165.747 690.883 167.239 664.876 170.069 639.645C170.633 634.613 174.614 607.993 177.311 605.865L178.13 606.421C176.412 594.553 190.38 565.008 196.448 554.775Z"/><path fill="#EADECA" d="M325.492 853.391C344.266 850.863 356.709 848.594 371.247 835.923C370.898 839.64 364.561 852.062 362.104 854.355C349.609 866.024 346.129 875.052 344.681 892.502C343.261 911.147 344.389 931.163 345.195 949.732C345.532 957.5 346.104 976.963 351.366 982.07C358.668 989.157 389.496 992.252 399.16 990.961L399.73 990.141C399.971 991.579 399.56 994.504 399.407 996.062C381.823 996.64 345.861 995.132 339.211 973.71C338.263 970.656 338.249 963.67 337.967 960.103C336.18 937.486 332.922 915.019 330.35 892.485C328.805 879.527 327.436 866.277 325.492 853.391Z"/><path fill="#EADECA" d="M207.217 817.403C210.226 816.844 215.345 815.391 217.74 813.666C220.742 811.436 222.149 806.864 226.245 806.255C227.669 806.043 228.944 805.453 230.214 804.824C231.395 814.285 226.459 813.912 224.213 820.403C219.078 835.247 223.253 860.035 224.608 875.218L231.775 954.681C232.069 958.262 232.151 960.769 231.974 964.219C231.639 970.782 227.919 984.72 234.599 989.195C243.939 995.452 258.147 997.33 269.167 995.845C270.367 995.683 271.075 995.697 271.929 994.8L272.469 993.332C272.555 996.624 272.474 1000.11 272.448 1003.42C257.055 1003.56 224.714 1000.84 222.403 980.635C221.622 973.808 222.457 965.975 222.246 958.949C221.178 923.403 216.868 887.967 212.369 852.718C210.874 840.961 208.424 829.133 207.217 817.403Z"/><path fill="#282723" d="M173.934 738.913C172.596 731.168 170.56 724.302 169.381 716.116C165.747 690.883 167.239 664.876 170.069 639.645C170.633 634.613 174.614 607.993 177.311 605.865L178.13 606.421C178.657 611.518 179.314 619.322 180.524 624.147C181.055 628.352 181.738 632.493 182.453 636.667C187.557 666.49 191.596 703.039 179.15 731.443C177.256 734.77 176.621 736.102 173.934 738.913Z"/><path fill="#EADECA" d="M196.448 554.775C218.741 576.801 267.448 588.69 298.393 589.125C310.77 589.299 323.073 586.589 335.236 585.658C332.134 588.149 329.358 590.824 326.518 593.599C324.616 592.828 318.987 593.889 316.857 594.197C285.452 598.738 255.953 591.041 226.992 579.53C222.858 577.887 213.425 572.084 208.659 573.889C198.05 580.336 191.449 595.62 187.424 606.735C185.992 610.689 182.698 622.865 180.524 624.147C179.314 619.322 178.657 611.518 178.13 606.421C176.412 594.553 190.38 565.008 196.448 554.775Z"/><path fill="#EADECA" d="M508.738 609.161C512.189 611.341 512.903 611.391 517.023 611.364C518.177 611.836 517.874 611.691 519.039 611.587C519.881 614.451 519.373 615.522 519.843 618.353L514.202 618.585C508.662 624.058 503.759 628.25 496.875 632.131C479.028 642.194 461.508 653.869 441.713 659.739C432.165 662.58 423.153 662.024 413.455 660.9C412.383 654.788 411.347 648.46 410.147 642.388C415.219 644.329 421.991 647.336 427.409 648.009C451.122 650.954 473.508 634.677 492.231 622.355C494.027 621.173 498.921 617.603 500.627 617.554L501.731 618.76C506.124 619.775 507.735 612.435 508.738 609.161Z"/><path fill="#EADECA" d="M179.15 731.443C185.702 744.04 173.778 787.475 186.555 791.403C186.784 791.473 187.024 791.507 187.258 791.56C188.328 790.648 187.859 789.795 188.286 787.979C189.018 797.324 187.439 797.891 191.164 807.772C164.047 787.508 179.296 766.944 173.934 738.913C176.621 736.102 177.256 734.77 179.15 731.443Z"/><path fill="#EADECA" d="M356.522 588.12C353.98 586.912 351.372 586.206 351.877 582.998C354.963 579.413 367.756 576.838 372.693 573.649C375.279 571.978 381.6 566.097 383.498 565.606L384.642 566.479C380.477 575.38 380.043 578.948 369.199 583.663C366.002 585.053 358.656 585.797 356.674 587.304L356.522 588.12Z"/><path fill="#EADECA" d="M217.399 801.035L219.36 804.855C210.44 814.769 201.502 814.135 195.394 801.697C199.427 801.551 207.907 812.408 217.399 801.035Z"/><path fill="#EADECA" d="M294.771 988.687C295.141 992.186 295.608 994.68 293.423 997.737C290.722 1001.52 282.857 1003.67 278.652 1002.02C278.204 1000.31 278.377 999.394 278.491 997.649C283.678 997.107 288.302 996.52 292.493 992.927C294.917 990.85 294.504 991.358 294.771 988.687Z"/><path fill="#EADECA" d="M417.73 981.318C420.048 992.496 414.201 993.306 404.975 994.901L405.427 989.458C409.54 988.561 411.962 988.121 414.803 984.76L417.73 981.318Z"/><path fill="#FEFCED" d="M228.537 339.43C232.661 341.581 240.731 348.108 243.978 348.439L244.389 347.913C245.59 331.889 237.898 308.277 231.548 293.276C227.605 283.959 220.299 267.648 210.179 263.276C208.772 262.669 209.53 263.31 208.076 262.132C222.689 254.829 277.066 338.329 285.332 340.535L286.109 339.99C286.349 336.968 281.096 329.705 279.548 326.315C288.465 325.619 297.893 326.575 306.85 326.649C308.397 326.662 312.433 327.186 313.121 327.104L315.782 327.649C343.524 344.097 366.927 364.063 380.53 394.225C376.001 404.161 374.634 410.395 375.394 421.229C377.28 448.15 387.174 452.073 411.077 449.749C411.814 446.58 413.162 446.238 415.462 444.158C423.819 436.601 424.544 426.631 425.64 415.997C430.823 427.826 429.89 427.374 432.212 438.51L432.412 439.442C432.935 446.827 433.635 452.621 433.547 460.153C426.134 462.928 414.722 466.946 408.183 470.768C416.533 469.051 424.841 466.327 433.27 464.471C432.436 468.867 431.765 472.993 431.109 477.419C427.393 477.448 415.734 477.205 413.355 479.403C415.73 481.315 426.849 480.618 430.487 480.535C429.086 484.77 427.994 487.902 426.237 491.982C422.486 491.062 415.968 489.185 412.415 490.056L412.441 490.696C416.212 493.134 420.226 493.693 424.518 494.951C420.908 500.158 413.503 510.559 409.032 514.697C390.25 536.928 364.826 549.998 336.56 551.407C333.149 551.577 329.081 553.121 325.41 553.324C313.435 553.781 301.044 554.224 289.142 552.383C219.542 541.617 159.74 506.66 169.578 427.521C170.627 411.792 178.833 399.608 181.73 384.931C183.606 375.429 177.413 348.898 183.587 341.218C179.535 327.615 190.88 288.905 197.836 275.896C199.134 273.468 201.699 270.901 203.784 269.026C219.737 263.934 237.306 328.834 240.006 341.733C232.167 335.839 228.43 335.267 221.493 330.885C219.216 329.954 215.077 327.776 212.792 328.773L212.574 329.682C214.161 332.047 216.38 333.251 218.446 335.263C223.176 339.87 226.327 344.976 228.859 350.976C224.765 349.833 212.887 346.476 209.203 349.165C209.064 351.4 210.567 351.937 212.391 352.841C218.073 350.007 228.093 357.239 232.32 353.488C233.449 349.395 230.324 343.205 228.537 339.43Z"/><path fill="#282723" d="M228.537 339.43C232.661 341.581 240.731 348.108 243.978 348.439L244.389 347.913C245.59 331.889 237.898 308.277 231.548 293.276C227.605 283.959 220.299 267.648 210.179 263.276C208.772 262.669 209.53 263.31 208.076 262.132C222.689 254.829 277.066 338.329 285.332 340.535L286.109 339.99C286.349 336.968 281.096 329.705 279.548 326.315C288.465 325.619 297.893 326.575 306.85 326.649C308.397 326.662 312.433 327.186 313.121 327.104C332.971 354.902 341.3 386.236 336.432 420.334C335.194 429.011 331.501 439.388 326.845 446.855C324.899 443.321 322.841 438.941 320.944 435.67C314.568 449.786 307.72 453.183 293.931 459.969C254.045 478.566 200.028 468.381 172.705 433.098C172.318 432.15 170.196 428.607 169.578 427.521C170.627 411.792 178.833 399.608 181.73 384.931C183.606 375.429 177.413 348.898 183.587 341.218C179.535 327.615 190.88 288.905 197.836 275.896C199.134 273.468 201.699 270.901 203.784 269.026C219.737 263.934 237.306 328.834 240.006 341.733C232.167 335.839 228.43 335.267 221.493 330.885C219.216 329.954 215.077 327.776 212.792 328.773L212.574 329.682C214.161 332.047 216.38 333.251 218.446 335.263C223.176 339.87 226.327 344.976 228.859 350.976C224.765 349.833 212.887 346.476 209.203 349.165C209.064 351.4 210.567 351.937 212.391 352.841C218.073 350.007 228.093 357.239 232.32 353.488C233.449 349.395 230.324 343.205 228.537 339.43Z"/><path d="M293.931 459.969C291.167 457.683 284.635 458.291 280.79 457.751C248.786 453.26 235.408 409.989 261.893 389.793C278.154 377.393 301.241 381.541 313.289 397.753C322.104 409.614 323.078 421.408 320.944 435.67C314.568 449.786 307.72 453.183 293.931 459.969Z"/><path fill="#EBB23A" d="M279.211 387.639C320.03 384.469 336.454 444.604 291.613 453.942C288.904 454.105 286.567 454.207 283.855 453.944C255.022 451.151 239.885 413.358 263.736 394.092C268.808 389.995 272.754 388.666 279.211 387.639Z"/><path d="M288.698 397.121C313.176 395.371 318.806 432.817 292.331 442.321C265.982 444.762 264.384 404.321 288.698 397.121Z"/><path fill="#FEFCED" d="M297.348 403.947C303.873 404.85 307.261 412.717 300.531 416.269C293.648 414.907 292.043 408.791 297.348 403.947Z"/><path fill="#FBA695" d="M203.784 269.026C219.737 263.934 237.306 328.834 240.006 341.733C232.167 335.839 228.43 335.267 221.493 330.885C219.216 329.954 215.077 327.776 212.792 328.773L212.574 329.682C214.161 332.047 216.38 333.251 218.446 335.263C223.176 339.87 226.327 344.976 228.859 350.976C224.765 349.833 212.887 346.476 209.203 349.165C209.064 351.4 210.567 351.937 212.391 352.841C216.234 355.453 219.062 357.098 222.277 360.469C219.891 362.279 216.046 364.294 213.348 366.218C206.026 371.437 201.948 376.853 196.837 383.946C195.812 374.335 192.022 367.021 188.811 358.038C186.821 352.471 185.213 346.901 183.587 341.218C179.535 327.615 190.88 288.905 197.836 275.896C199.134 273.468 201.699 270.901 203.784 269.026Z"/><path fill="#E28072" d="M203.784 269.026C219.737 263.934 237.306 328.834 240.006 341.733C232.167 335.839 228.43 335.267 221.493 330.885C223.624 325.35 206.944 277.307 203.784 269.026Z"/><path fill="#EADECA" d="M169.578 427.521C170.196 428.607 172.318 432.15 172.705 433.098C170.472 438.272 173.374 452.932 174.58 458.331C190.784 530.88 278.883 553.174 343.206 543.983C364.366 540.959 385.347 530.499 402.467 518.095C404.925 516.314 405.863 515.017 409.032 514.697C390.25 536.928 364.826 549.998 336.56 551.407C333.149 551.577 329.081 553.121 325.41 553.324C313.435 553.781 301.044 554.224 289.142 552.383C219.542 541.617 159.74 506.66 169.578 427.521Z"/><path fill="#282723" d="M411.077 449.749C411.814 446.58 413.162 446.238 415.462 444.158C423.819 436.601 424.544 426.631 425.64 415.997C430.823 427.826 429.89 427.374 432.212 438.51L432.412 439.442L431.596 439.288C423.491 446.523 423.049 448.02 411.077 449.749Z"/><path d="M364.237 456.678L373.213 456.542C386.04 456.449 403.932 459.827 385.633 473.123C383.629 474.579 384.156 476.664 383.64 478.938C381.883 481.306 379.406 481.664 376.622 482.196C375.385 490.652 374.892 494.634 371.244 502.271C381.386 507.185 391.365 506.412 399.033 497.402C400.716 495.425 403.496 490.018 405.729 489.224L406.394 489.997C406.467 492.196 405.57 493.81 404.577 495.714C397.261 509.757 381.713 512.668 368.505 505.463C357.905 514.391 340.266 520.119 327.009 512.939C325.17 511.943 321.648 508.286 321.15 506.308L321.796 505.683C324.44 505.897 330.277 510.635 333.915 511.253C343.671 512.909 354.019 510.175 362.108 504.618C370.004 499.194 371.011 490.957 372.415 482.169C364.116 478.179 368.639 475.555 361.031 472.564C347.149 467.106 349.713 458.37 364.237 456.678Z"/><path fill="#FBA695" d="M373.217 459.711C377.04 459.773 385.557 459.421 388.414 462.68C391.703 466.432 384.847 469.632 382.163 470.994C380.482 477.462 380.327 478.982 373.209 478.181C369.625 475.683 369.833 475.065 368.916 470.84C361.676 469.527 359.28 469.143 354.973 463.224C360.816 459.914 366.624 460.105 373.217 459.711Z"/><path d="M276.257 483.203C287.371 481.841 312.7 483.325 323.221 486.073C317.756 486.723 305.157 486.504 298.98 486.439C283.129 486.272 270.562 486.598 254.752 488.669C246.566 489.756 238.376 491.111 230.268 492.657C224.639 493.73 219.552 495.185 213.83 495.873C231.719 488.944 257.297 484.961 276.257 483.203Z"/><path d="M312.822 497.201C315.582 496.923 317.988 497.109 320.75 497.228C314.757 499.351 304.781 501.405 298.278 503.283C282.815 507.746 267.555 512.79 253.012 519.754C250.515 521.148 249.077 521.814 246.492 522.911C261.535 510.866 293.676 499.079 312.822 497.201Z"/><path fill="#282723" d="M115.863 768.535C119.11 768.369 124.001 769.546 125.692 772.541C132.969 785.428 123.539 801.648 119.341 814.083C114.318 828.964 112.32 848.259 122.46 861.47C131.366 873.173 149.286 872.814 159.831 863.77C171.529 853.739 185.182 826.607 186.816 811.361C192.425 813.96 194.933 814.705 200.994 816.074C203.16 836.012 208.971 840.508 200.412 860.185C198.826 863.873 197.181 867.411 195.473 871.049C180.769 901.912 143.094 913.749 112.986 898.001C105.988 894.341 99.5687 889.54 94.9772 882.822C75.3877 854.162 79.6673 818.973 95.1057 789.611C100.341 779.654 104.706 772.151 115.863 768.535Z"/><path fill="#282723" d="M738.865 175.714C741.486 175.459 745.802 175.532 748.562 175.501L748.538 199.769L567.474 206.751C543.923 207.631 520.087 209.065 496.572 209.607C493.434 209.928 489.836 209.952 486.645 210.043C486.543 205.334 485.4 188.927 488.396 186.758C491.237 184.7 516.388 184.599 520.744 184.443L561.583 182.913L662.949 178.919C687.721 177.98 714.245 177.321 738.865 175.714Z"/><path fill="#282723" d="M346.727 324.178C364.941 308.776 380.401 291.611 396.069 273.654C401.584 267.333 405.329 263.685 412.809 259.86C398.712 279.986 384.505 310.962 378.481 334.931C379.557 336.47 380.297 337.648 381.61 338.982L389.113 334.166C387.201 336.954 384.729 339.727 385.059 343.032C387.663 347.706 390.774 347.421 395.289 351.205C414.613 367.397 427.245 382.417 425.513 408.839C422.816 399.202 419.668 390.156 410.363 385.148C397.557 378.254 387.871 383.763 380.53 394.225C366.927 364.063 343.524 344.097 315.782 327.649C324.88 322.596 357.528 332.62 370.199 333.668C361.403 328.22 356.579 326.816 346.727 324.178Z"/><path fill="#282723" d="M929.069 168.28C938.235 167.664 943.004 166.755 942.048 178.09C941.71 182.089 941.899 187.47 941.902 191.576C891.505 194.768 839.363 195.587 788.691 198.286C785.557 198.577 780.279 198.553 776.973 198.649L776.99 174.014C795.381 173.849 815.025 172.81 833.501 172.077L929.069 168.28Z"/><path fill="#3F9B3F" d="M753.098 170.346C760.216 174.001 764.672 175.33 772.265 177.786L772.31 303.683C772.322 325.429 773.044 352.391 772.137 373.686C765.989 373.852 759.265 373.733 753.072 373.747C752.359 325.222 753.496 276.39 753.02 227.828C752.834 208.818 752.763 189.335 753.098 170.346Z"/><path fill="#D53328" d="M199.517 526.403L200.198 524.519C201.535 524.29 201.746 524.37 203.232 525.443C223.432 540.021 254.167 551.201 278.824 555.71C293.549 558.629 310.538 559.208 325.517 557.822C327.995 557.593 333.767 556.483 335.113 557.986L335.495 559.884C335.73 563.653 336.341 578.07 335.209 581.186C334.315 581.411 333.367 581.67 332.472 581.864C321.602 583.168 311.152 584.637 300.109 584.706C273.348 584.873 237.089 575.497 214.271 561.888C197.253 553.425 192.788 544.237 199.517 526.403Z"/><path fill="#9C271D" d="M199.517 526.403C200.748 527.33 200.115 526.896 200.959 527.874C204.72 532.228 210.185 535.066 215.055 537.932C216.631 538.86 219.804 540.313 221.055 541.29C216.516 550.143 215.839 552.256 214.271 561.888C197.253 553.425 192.788 544.237 199.517 526.403Z"/><path d="M199.517 526.403L200.198 524.519C201.535 524.29 201.746 524.37 203.232 525.443C223.432 540.021 254.167 551.201 278.824 555.71C277.716 556.076 277.332 556.263 276.181 556.355L275.567 556.915C279.291 558.414 292.686 558.689 296.963 560.279L296.177 560.616C273.275 560.008 241.331 551.628 221.055 541.29C219.804 540.313 216.631 538.86 215.055 537.932C210.185 535.066 204.72 532.228 200.959 527.874C200.115 526.896 200.748 527.33 199.517 526.403Z"/><path fill="#9C271D" d="M278.824 555.71C293.549 558.629 310.538 559.208 325.517 557.822C327.995 557.593 333.767 556.483 335.113 557.986L335.495 559.884L334.776 560.04C328.682 560.28 300.576 562.4 296.177 560.616L296.963 560.279C292.686 558.689 279.291 558.414 275.567 556.915L276.181 556.355C277.332 556.263 277.716 556.076 278.824 555.71Z"/><path fill="#9C271D" d="M334.776 560.04L335.495 559.884C335.73 563.653 336.341 578.07 335.209 581.186C334.315 581.411 333.367 581.67 332.472 581.864C332.356 578.141 333.045 563.071 334.776 560.04Z"/><path fill="#E28072" d="M414.686 266.34C414.846 266.491 414.963 266.595 415.091 266.816C417.912 271.692 407.293 342.033 405.196 352.787C401.86 350.307 398.735 348.176 395.275 345.865C396.868 344.208 399.541 341.982 399.424 339.602L398.592 339.178C394.876 339.537 392.424 341.36 389.106 343.217C389.896 341.261 390.811 339.617 391.792 337.758C395.645 332.619 398.105 329.145 401.436 323.651C393.798 326.576 390.18 328.787 383.262 332.981C391.004 314.918 401.575 280.716 414.686 266.34Z"/><defs><linearGradient id="gradient_0" gradientUnits="userSpaceOnUse" x1="363.32413" y1="603.6709" x2="326.96585" y2="612.35706"><stop offset="0" stop-color="#F3BF39"/><stop offset="1" stop-color="#DD983C"/></linearGradient></defs><path fill="url(#gradient_0)" d="M345.598 588.69C368.391 591.368 373.402 618.993 350.476 627.624C351.183 625.284 355.198 614.298 354.971 613.045C352.886 610.974 348.831 611.571 345.642 611.568C344.709 612.838 344.824 613.057 344.656 614.613C345.323 616.277 347.954 617.917 349.525 619.179C349.032 621.467 348.249 628.099 345.11 627.961C337.158 627.732 329.025 622.909 326.888 614.751C322.858 599.366 330.924 590.096 345.598 588.69Z"/><path fill="#FEFCED" d="M351.819 593.091C357.148 594.637 357.32 595.595 358.595 600.821C352.954 599.905 353.081 598.14 351.819 593.091Z"/><path fill="#EBB23A" d="M389.076 390.768C398.534 383.978 408.649 387.163 415.315 396.226C424.107 408.18 424.148 432.581 411.575 442.047C401.568 448.893 390.097 445.499 383.256 436.208C418.697 452.303 421.109 382.932 389.126 398.852C389.496 395.391 389.93 394.277 389.076 390.768Z"/><path fill="#D53328" d="M381.929 542.489C383.859 544.72 382.954 555.619 382.779 558.755C378.599 564.334 374.075 568.038 367.946 571.389C365.113 572.938 353.886 577.512 351.439 576.742L351.098 575.575C350.543 569.632 349.823 559.349 347.266 554.285C347.899 553.913 348.128 553.749 348.893 553.755C359.433 553.842 372.39 547.142 381.929 542.489Z"/><path fill="#EBB23A" d="M335.624 553.659C348.419 552.682 346.798 566.481 347.742 575.397C348.017 577.987 348.053 581.421 347.907 584.003C345.175 584.045 342.255 584.417 339.519 584.695C339.53 579.44 339.683 560.071 337.846 555.817C336.67 555.11 336.166 554.99 335.624 553.659Z"/><path fill="#FEFCED" d="M529.779 586.436L530.517 586.529C533.803 589.414 535.111 593.534 533.359 597.616C532.065 600.634 529.361 601.353 526.565 602.392C525.96 602.433 525.289 602.348 524.668 602.303C523.227 598.027 525.892 598.225 521.87 589.89C524.841 588.824 526.942 587.803 529.779 586.436Z"/><path fill="#FEFCED" d="M522.533 606.867C524.609 606.709 530.887 605.863 532.313 606.382C534.096 613.952 525.784 617.159 519.843 618.353C519.373 615.522 519.881 614.451 519.039 611.587C517.874 611.691 518.177 611.836 517.023 611.364C519.876 609.596 520.439 609.494 522.533 606.867Z"/><path d="M764.908 384.305C765 389.574 766.083 400.641 762.758 404.406L761.735 404.481C758.599 401.103 760.405 390.203 760.645 385.447L764.908 384.305Z"/><path fill="#FEFCED" d="M399.408 401.352C405.952 401.785 408.436 407.52 403.536 412.547C396.944 411.996 394.608 405.975 399.408 401.352Z"/><path fill="#E49B3A" d="M389.076 390.768C389.93 394.277 389.496 395.391 389.126 398.852L388.703 399.191C383.287 403.633 382.598 404.866 379.089 411.065C381.436 403.275 383.625 396.83 389.076 390.768Z"/><path d="M784.841 88.2788L785.581 88.5251C789.236 93.1039 774.298 121.004 772.283 128.033C770.437 134.473 776.442 146.001 773.761 149.468L772.938 149.386C769.086 146.196 768.996 142.012 768.333 137.534C766.667 126.27 771.668 118.699 775.828 108.739C769.199 119.368 764.106 124.176 755.563 112.323C759.3 122.252 760.486 133.137 758.572 143.606C757.963 146.934 755.279 149.093 757.046 152.048C759.539 154.045 767.454 158.852 768.247 160.741C764.312 163.64 754.332 155.256 751.27 152.588C756.874 138.038 756.007 128.196 753.271 112.94C752.33 107.693 750.544 103.729 748.157 98.9765C747.153 96.9775 743.965 91.4899 746.257 90.0045C751.764 92.243 757.292 113.823 765.084 115.308C773.679 112.578 777.552 96.0192 784.841 88.2788Z"/><path d="M823.794 90.0022C825.533 89.8502 828.027 89.8523 829.349 90.9159C839.937 99.4356 826.964 107.616 819.522 111.202C815.959 112.919 812.117 115.538 809.244 117.419C807.062 118.514 804.252 119.74 802.467 117.599C801.542 110.396 817.164 93.4892 823.794 90.0022Z"/><path fill="#282723" d="M824.773 93.9003C831.58 95.6965 828.108 101.212 824.483 104.188C819.772 108.056 814.472 110.662 809.147 113.55L807.602 114.25L807.235 113.786C808.715 108.007 819.432 97.2551 824.773 93.9003Z"/><path d="M703.154 110.497C711.683 110.251 718.989 115.117 724.401 121.548C726.712 124.294 726.319 127.497 723.217 129.559C715.299 129.343 707.505 127.811 701.55 122.136C697.845 118.604 699.593 113.329 703.154 110.497Z"/><path fill="#282723" d="M705.192 113.856C710.069 114.248 719.524 120.123 720.933 124.701L720.043 125.339C715.067 124.45 698.595 122 705.192 113.856Z"/><path d="M690.731 71.7372C696.936 72.7556 714.99 95.7752 715.036 101.481C710.553 98.9306 693.737 80.7905 690.687 75.1451C689.883 73.6578 690.272 73.0287 690.731 71.7372Z"/><path d="M772.931 13.6755C778.548 17.1824 774.074 34.0369 772.043 39.3931C771.724 39.5658 771.405 39.7385 771.086 39.9112L770.561 39.038C770.198 32.9417 770.465 19.0343 772.931 13.6755Z"/><path d="M809.597 50.2306C815.814 52.9449 805.891 63.311 803.345 66.061L802.945 66.3348L802.263 66.0663C801.828 62.8876 806.959 52.3762 809.597 50.2306Z"/><path d="M816.041 144.064C818.356 144.002 820.965 143.382 822.175 145.559C821.08 148.294 818.189 148.854 815.615 149.769C814.151 150.404 812.665 150.544 811.214 149.974C810.139 146.678 813.645 145.203 816.041 144.064Z"/><path d="M749.195 28.8691C752.436 31.6836 752.227 42.6598 751.983 46.8066C747.748 44.9547 748.815 32.93 749.195 28.8691Z"/><path d="M687.094 141.044C690.071 140.966 696.704 141.535 697.662 144.857L696.542 145.661C693.568 145.574 687.524 145.498 685.512 143.463C685.644 141.727 685.356 142.586 687.094 141.044Z"/></svg>